<mxfile host="app.diagrams.net" agent="Mozilla/5.0 (Windows NT 10.0; Win64; x64) AppleWebKit/537.36 (KHTML, like Gecko) Chrome/137.0.0.0 Safari/537.36" version="27.1.6" pages="3">
  <diagram id="fa3CTEh7-JaMkaKIa6m6" name="サイトマップ">
    <mxGraphModel dx="815" dy="854" grid="0" gridSize="10" guides="1" tooltips="1" connect="1" arrows="1" fold="1" page="0" pageScale="1" pageWidth="827" pageHeight="1169" math="0" shadow="0">
      <root>
        <mxCell id="0" />
        <mxCell id="1" parent="0" />
        <mxCell id="tSzW4Xw3jAVctzFPixTb-2" style="edgeStyle=none;curved=1;rounded=0;orthogonalLoop=1;jettySize=auto;html=1;exitX=0.5;exitY=1;exitDx=0;exitDy=0;entryX=0.5;entryY=0;entryDx=0;entryDy=0;fontSize=12;startSize=8;endSize=8;endArrow=none;startFill=0;endFill=1;" edge="1" parent="1" source="IoSWa65AUH3MXSNIP5eG-1" target="IoSWa65AUH3MXSNIP5eG-9">
          <mxGeometry relative="1" as="geometry" />
        </mxCell>
        <mxCell id="IoSWa65AUH3MXSNIP5eG-1" value="&lt;div&gt;&lt;span style=&quot;background-color: transparent; color: light-dark(rgb(0, 0, 0), rgb(255, 255, 255));&quot;&gt;トップページ&lt;/span&gt;&lt;/div&gt;" style="rounded=0;whiteSpace=wrap;html=1;" vertex="1" parent="1">
          <mxGeometry x="373" y="-194" width="154" height="35" as="geometry" />
        </mxCell>
        <mxCell id="tSzW4Xw3jAVctzFPixTb-9" style="edgeStyle=none;curved=1;rounded=0;orthogonalLoop=1;jettySize=auto;html=1;fontSize=12;startSize=8;endSize=8;endArrow=none;startFill=0;" edge="1" parent="1" source="IoSWa65AUH3MXSNIP5eG-3">
          <mxGeometry relative="1" as="geometry">
            <mxPoint x="636" y="-68.75999999999999" as="targetPoint" />
          </mxGeometry>
        </mxCell>
        <mxCell id="IoSWa65AUH3MXSNIP5eG-3" value="サインアップ" style="rounded=0;whiteSpace=wrap;html=1;" vertex="1" parent="1">
          <mxGeometry x="559" y="-128" width="154" height="35" as="geometry" />
        </mxCell>
        <mxCell id="tSzW4Xw3jAVctzFPixTb-7" style="edgeStyle=orthogonalEdgeStyle;rounded=0;orthogonalLoop=1;jettySize=auto;html=1;entryX=0.75;entryY=1;entryDx=0;entryDy=0;fontSize=12;startSize=8;endSize=8;endArrow=classic;startFill=0;endFill=1;" edge="1" parent="1" source="IoSWa65AUH3MXSNIP5eG-4" target="IoSWa65AUH3MXSNIP5eG-1">
          <mxGeometry relative="1" as="geometry">
            <Array as="points">
              <mxPoint x="813" y="-69" />
              <mxPoint x="488" y="-69" />
            </Array>
          </mxGeometry>
        </mxCell>
        <mxCell id="IoSWa65AUH3MXSNIP5eG-4" value="ログイン" style="rounded=0;whiteSpace=wrap;html=1;" vertex="1" parent="1">
          <mxGeometry x="736" y="-128" width="154" height="35" as="geometry" />
        </mxCell>
        <mxCell id="tSzW4Xw3jAVctzFPixTb-15" style="edgeStyle=orthogonalEdgeStyle;rounded=0;orthogonalLoop=1;jettySize=auto;html=1;entryX=0.5;entryY=0;entryDx=0;entryDy=0;fontSize=12;startSize=8;endSize=8;endArrow=none;startFill=0;" edge="1" parent="1" source="IoSWa65AUH3MXSNIP5eG-9" target="tSzW4Xw3jAVctzFPixTb-13">
          <mxGeometry relative="1" as="geometry" />
        </mxCell>
        <mxCell id="tSzW4Xw3jAVctzFPixTb-17" style="edgeStyle=orthogonalEdgeStyle;rounded=0;orthogonalLoop=1;jettySize=auto;html=1;entryX=0.5;entryY=0;entryDx=0;entryDy=0;fontSize=12;startSize=8;endSize=8;endArrow=none;startFill=0;" edge="1" parent="1" source="IoSWa65AUH3MXSNIP5eG-9" target="tSzW4Xw3jAVctzFPixTb-10">
          <mxGeometry relative="1" as="geometry" />
        </mxCell>
        <mxCell id="IoSWa65AUH3MXSNIP5eG-9" value="&lt;div&gt;プロジェクト詳細&lt;/div&gt;" style="rounded=0;whiteSpace=wrap;html=1;" vertex="1" parent="1">
          <mxGeometry x="373" y="-34" width="154" height="35" as="geometry" />
        </mxCell>
        <mxCell id="tSzW4Xw3jAVctzFPixTb-4" style="edgeStyle=orthogonalEdgeStyle;rounded=0;orthogonalLoop=1;jettySize=auto;html=1;entryX=0.5;entryY=0;entryDx=0;entryDy=0;fontSize=12;strokeColor=default;endArrow=classic;startFill=0;endFill=1;" edge="1" parent="1" source="IoSWa65AUH3MXSNIP5eG-1" target="IoSWa65AUH3MXSNIP5eG-3">
          <mxGeometry relative="1" as="geometry" />
        </mxCell>
        <mxCell id="tSzW4Xw3jAVctzFPixTb-5" style="edgeStyle=orthogonalEdgeStyle;rounded=0;orthogonalLoop=1;jettySize=auto;html=1;fontSize=12;startSize=8;endSize=8;endArrow=classic;startFill=0;endFill=1;" edge="1" parent="1" source="IoSWa65AUH3MXSNIP5eG-1" target="IoSWa65AUH3MXSNIP5eG-4">
          <mxGeometry relative="1" as="geometry" />
        </mxCell>
        <mxCell id="tSzW4Xw3jAVctzFPixTb-10" value="メンバー管理" style="rounded=0;whiteSpace=wrap;html=1;" vertex="1" parent="1">
          <mxGeometry x="493" y="70" width="154" height="35" as="geometry" />
        </mxCell>
        <mxCell id="tSzW4Xw3jAVctzFPixTb-13" value="タスクチャット" style="rounded=0;whiteSpace=wrap;html=1;" vertex="1" parent="1">
          <mxGeometry x="253" y="70" width="154" height="35" as="geometry" />
        </mxCell>
      </root>
    </mxGraphModel>
  </diagram>
  <diagram id="COnduIQdkRQcI7gd68-B" name="ワイヤーフレーム">
    <mxGraphModel dx="5530" dy="3175" grid="0" gridSize="10" guides="1" tooltips="1" connect="1" arrows="1" fold="1" page="0" pageScale="1" pageWidth="827" pageHeight="1169" math="0" shadow="0">
      <root>
        <mxCell id="0" />
        <mxCell id="1" parent="0" />
        <mxCell id="DcRnJb95eFVDKA_FqErw-2" value="" style="rounded=0;whiteSpace=wrap;html=1;movable=1;resizable=1;rotatable=1;deletable=1;editable=1;locked=0;connectable=1;" vertex="1" parent="1">
          <mxGeometry x="3788" y="3191" width="1920" height="1080" as="geometry" />
        </mxCell>
        <mxCell id="DcRnJb95eFVDKA_FqErw-4" style="edgeStyle=none;curved=1;rounded=0;orthogonalLoop=1;jettySize=auto;html=1;fontSize=12;startSize=8;endSize=8;" edge="1" parent="1" source="DcRnJb95eFVDKA_FqErw-3" target="DcRnJb95eFVDKA_FqErw-2">
          <mxGeometry relative="1" as="geometry" />
        </mxCell>
        <mxCell id="DcRnJb95eFVDKA_FqErw-3" value="" style="rounded=0;whiteSpace=wrap;html=1;" vertex="1" parent="1">
          <mxGeometry x="3788" y="3191" width="1920" height="65" as="geometry" />
        </mxCell>
        <mxCell id="DcRnJb95eFVDKA_FqErw-5" value="&lt;font style=&quot;font-size: 30px;&quot;&gt;Service Name&lt;/font&gt;" style="text;html=1;align=center;verticalAlign=middle;whiteSpace=wrap;rounded=0;" vertex="1" parent="1">
          <mxGeometry x="3808" y="3208.5" width="200" height="30" as="geometry" />
        </mxCell>
        <mxCell id="DcRnJb95eFVDKA_FqErw-7" value="&lt;span style=&quot;font-size: 35px;&quot;&gt;プロジェクト詳細&lt;/span&gt;" style="text;html=1;align=center;verticalAlign=middle;whiteSpace=wrap;rounded=0;" vertex="1" parent="1">
          <mxGeometry x="3788" y="3094" width="302" height="72" as="geometry" />
        </mxCell>
        <mxCell id="DcRnJb95eFVDKA_FqErw-8" value="&lt;font style=&quot;font-size: 18px;&quot;&gt;User&lt;/font&gt;" style="text;html=1;align=center;verticalAlign=middle;whiteSpace=wrap;rounded=0;" vertex="1" parent="1">
          <mxGeometry x="5596" y="3208.5" width="60" height="30" as="geometry" />
        </mxCell>
        <mxCell id="DcRnJb95eFVDKA_FqErw-11" value="&lt;font style=&quot;font-size: 16px;&quot;&gt;▼&lt;/font&gt;" style="text;html=1;align=center;verticalAlign=middle;whiteSpace=wrap;rounded=0;" vertex="1" parent="1">
          <mxGeometry x="5659" y="3208.5" width="30" height="30" as="geometry" />
        </mxCell>
        <mxCell id="DcRnJb95eFVDKA_FqErw-20" value="&lt;span style=&quot;font-size: 35px;&quot;&gt;カレンダー&lt;/span&gt;" style="text;html=1;align=center;verticalAlign=middle;whiteSpace=wrap;rounded=0;" vertex="1" parent="1">
          <mxGeometry x="4443" y="3357" width="215" height="28" as="geometry" />
        </mxCell>
        <mxCell id="VCk4Izo_5Idr8q5UAN8--1" value="" style="rounded=0;whiteSpace=wrap;html=1;movable=0;resizable=0;rotatable=0;deletable=0;editable=0;locked=1;connectable=0;" vertex="1" parent="1">
          <mxGeometry x="1610" y="947" width="1920" height="1080" as="geometry" />
        </mxCell>
        <mxCell id="VCk4Izo_5Idr8q5UAN8--2" style="edgeStyle=none;curved=1;rounded=0;orthogonalLoop=1;jettySize=auto;html=1;fontSize=12;startSize=8;endSize=8;" edge="1" parent="1" source="VCk4Izo_5Idr8q5UAN8--3" target="VCk4Izo_5Idr8q5UAN8--1">
          <mxGeometry relative="1" as="geometry" />
        </mxCell>
        <mxCell id="VCk4Izo_5Idr8q5UAN8--3" value="" style="rounded=0;whiteSpace=wrap;html=1;" vertex="1" parent="1">
          <mxGeometry x="1610" y="947" width="1920" height="65" as="geometry" />
        </mxCell>
        <mxCell id="VCk4Izo_5Idr8q5UAN8--4" value="&lt;font style=&quot;font-size: 30px;&quot;&gt;Service Name&lt;/font&gt;" style="text;html=1;align=center;verticalAlign=middle;whiteSpace=wrap;rounded=0;" vertex="1" parent="1">
          <mxGeometry x="1630" y="964.5" width="200" height="30" as="geometry" />
        </mxCell>
        <mxCell id="VCk4Izo_5Idr8q5UAN8--5" value="&lt;span style=&quot;font-size: 35px;&quot;&gt;トップページ&lt;/span&gt;" style="text;html=1;align=center;verticalAlign=middle;whiteSpace=wrap;rounded=0;" vertex="1" parent="1">
          <mxGeometry x="1610" y="850" width="229" height="72" as="geometry" />
        </mxCell>
        <mxCell id="VCk4Izo_5Idr8q5UAN8--6" value="&lt;font style=&quot;font-size: 18px;&quot;&gt;User&lt;/font&gt;" style="text;html=1;align=center;verticalAlign=middle;whiteSpace=wrap;rounded=0;" vertex="1" parent="1">
          <mxGeometry x="3418" y="964.5" width="60" height="30" as="geometry" />
        </mxCell>
        <mxCell id="VCk4Izo_5Idr8q5UAN8--7" value="&lt;font style=&quot;font-size: 16px;&quot;&gt;▼&lt;/font&gt;" style="text;html=1;align=center;verticalAlign=middle;whiteSpace=wrap;rounded=0;" vertex="1" parent="1">
          <mxGeometry x="3481" y="964.5" width="30" height="30" as="geometry" />
        </mxCell>
        <mxCell id="VCk4Izo_5Idr8q5UAN8--8" value="&lt;span style=&quot;font-size: 35px;&quot;&gt;プロジェクト一覧&lt;/span&gt;" style="text;html=1;align=center;verticalAlign=middle;whiteSpace=wrap;rounded=0;" vertex="1" parent="1">
          <mxGeometry x="2426.5" y="1084" width="287" height="30" as="geometry" />
        </mxCell>
        <mxCell id="VCk4Izo_5Idr8q5UAN8--9" value="" style="rounded=0;whiteSpace=wrap;html=1;" vertex="1" parent="1">
          <mxGeometry x="2170" y="1143" width="800" height="660" as="geometry" />
        </mxCell>
        <mxCell id="VCk4Izo_5Idr8q5UAN8--10" value="" style="rounded=0;whiteSpace=wrap;html=1;" vertex="1" parent="1">
          <mxGeometry x="2170" y="1843" width="800" height="60" as="geometry" />
        </mxCell>
        <mxCell id="VCk4Izo_5Idr8q5UAN8--11" value="&lt;font style=&quot;font-size: 30px;&quot;&gt;＋&lt;/font&gt;" style="ellipse;whiteSpace=wrap;html=1;aspect=fixed;rounded=0;align=center;" vertex="1" parent="1">
          <mxGeometry x="2916" y="1853.5" width="39" height="39" as="geometry" />
        </mxCell>
        <mxCell id="sUbV4CKQDTveOBsSLdRB-3" value="&lt;span style=&quot;font-size: 35px;&quot;&gt;日付未設定タスク&lt;/span&gt;" style="text;html=1;align=center;verticalAlign=middle;whiteSpace=wrap;rounded=0;" vertex="1" parent="1">
          <mxGeometry x="3804" y="3354" width="311" height="28" as="geometry" />
        </mxCell>
        <mxCell id="sUbV4CKQDTveOBsSLdRB-10" value="&lt;font style=&quot;font-size: 35px;&quot;&gt;　Project　&lt;/font&gt;&lt;font style=&quot;font-size: 18px;&quot;&gt;&lt;font style=&quot;&quot;&gt;&lt;b style=&quot;&quot;&gt;Owner : User&lt;/b&gt;&lt;/font&gt;&lt;/font&gt;&lt;font style=&quot;font-size: 16px;&quot;&gt;　　　Created at&amp;nbsp; 2025 06 23&lt;/font&gt;" style="text;html=1;align=left;verticalAlign=middle;whiteSpace=wrap;rounded=0;" vertex="1" parent="1">
          <mxGeometry x="2171.5" y="1191" width="797" height="30" as="geometry" />
        </mxCell>
        <mxCell id="sUbV4CKQDTveOBsSLdRB-13" value="&lt;font style=&quot;font-size: 35px;&quot;&gt;　Project　&lt;/font&gt;&lt;font style=&quot;font-size: 18px;&quot;&gt;&lt;font style=&quot;&quot;&gt;&lt;b style=&quot;&quot;&gt;Owner : User&lt;/b&gt;&lt;/font&gt;&lt;/font&gt;&lt;font style=&quot;font-size: 16px;&quot;&gt;　　　Created at&amp;nbsp; 2025 06 23&lt;/font&gt;" style="text;html=1;align=left;verticalAlign=middle;whiteSpace=wrap;rounded=0;" vertex="1" parent="1">
          <mxGeometry x="2171.5" y="1259" width="797" height="30" as="geometry" />
        </mxCell>
        <mxCell id="sUbV4CKQDTveOBsSLdRB-15" value="&lt;font style=&quot;font-size: 35px;&quot;&gt;　Project　&lt;/font&gt;&lt;font style=&quot;font-size: 18px;&quot;&gt;&lt;font style=&quot;&quot;&gt;&lt;b style=&quot;&quot;&gt;Owner : User&lt;/b&gt;&lt;/font&gt;&lt;/font&gt;&lt;font style=&quot;font-size: 16px;&quot;&gt;　　　Created at&amp;nbsp; 2025 06 23&lt;/font&gt;" style="text;html=1;align=left;verticalAlign=middle;whiteSpace=wrap;rounded=0;" vertex="1" parent="1">
          <mxGeometry x="2171.5" y="1321" width="797" height="30" as="geometry" />
        </mxCell>
        <mxCell id="sUbV4CKQDTveOBsSLdRB-70" value="" style="rounded=0;whiteSpace=wrap;html=1;movable=1;resizable=1;rotatable=1;deletable=1;editable=1;locked=0;connectable=1;" vertex="1" parent="1">
          <mxGeometry x="1608" y="3191" width="1920" height="1080" as="geometry" />
        </mxCell>
        <mxCell id="sUbV4CKQDTveOBsSLdRB-71" style="edgeStyle=none;curved=1;rounded=0;orthogonalLoop=1;jettySize=auto;html=1;fontSize=12;startSize=8;endSize=8;" edge="1" parent="1" source="sUbV4CKQDTveOBsSLdRB-72" target="sUbV4CKQDTveOBsSLdRB-70">
          <mxGeometry relative="1" as="geometry" />
        </mxCell>
        <mxCell id="sUbV4CKQDTveOBsSLdRB-72" value="" style="rounded=0;whiteSpace=wrap;html=1;" vertex="1" parent="1">
          <mxGeometry x="1608" y="3191" width="1920" height="65" as="geometry" />
        </mxCell>
        <mxCell id="sUbV4CKQDTveOBsSLdRB-73" value="&lt;font style=&quot;font-size: 30px;&quot;&gt;Service Name&lt;/font&gt;" style="text;html=1;align=center;verticalAlign=middle;whiteSpace=wrap;rounded=0;" vertex="1" parent="1">
          <mxGeometry x="1630" y="3208.5" width="200" height="30" as="geometry" />
        </mxCell>
        <mxCell id="sUbV4CKQDTveOBsSLdRB-74" value="&lt;span style=&quot;font-size: 35px;&quot;&gt;プロジェクト詳細&lt;/span&gt;" style="text;html=1;align=center;verticalAlign=middle;whiteSpace=wrap;rounded=0;" vertex="1" parent="1">
          <mxGeometry x="1610" y="3094" width="289" height="72" as="geometry" />
        </mxCell>
        <mxCell id="sUbV4CKQDTveOBsSLdRB-75" value="&lt;font style=&quot;font-size: 18px;&quot;&gt;User&lt;/font&gt;" style="text;html=1;align=center;verticalAlign=middle;whiteSpace=wrap;rounded=0;" vertex="1" parent="1">
          <mxGeometry x="3418" y="3208.5" width="60" height="30" as="geometry" />
        </mxCell>
        <mxCell id="sUbV4CKQDTveOBsSLdRB-76" value="&lt;font style=&quot;font-size: 16px;&quot;&gt;▼&lt;/font&gt;" style="text;html=1;align=center;verticalAlign=middle;whiteSpace=wrap;rounded=0;" vertex="1" parent="1">
          <mxGeometry x="3481" y="3208.5" width="30" height="30" as="geometry" />
        </mxCell>
        <mxCell id="sUbV4CKQDTveOBsSLdRB-77" value="&lt;span style=&quot;font-size: 35px;&quot;&gt;タスク一覧&lt;/span&gt;" style="text;html=1;align=center;verticalAlign=middle;whiteSpace=wrap;rounded=0;" vertex="1" parent="1">
          <mxGeometry x="2424.5" y="3296" width="287" height="30" as="geometry" />
        </mxCell>
        <mxCell id="sUbV4CKQDTveOBsSLdRB-78" value="" style="rounded=0;whiteSpace=wrap;html=1;" vertex="1" parent="1">
          <mxGeometry x="2168" y="3385" width="800" height="660" as="geometry" />
        </mxCell>
        <mxCell id="sUbV4CKQDTveOBsSLdRB-79" value="" style="rounded=0;whiteSpace=wrap;html=1;" vertex="1" parent="1">
          <mxGeometry x="2168" y="4085" width="800" height="60" as="geometry" />
        </mxCell>
        <mxCell id="sUbV4CKQDTveOBsSLdRB-80" value="&lt;font style=&quot;font-size: 30px;&quot;&gt;＋&lt;/font&gt;" style="ellipse;whiteSpace=wrap;html=1;aspect=fixed;rounded=0;align=center;" vertex="1" parent="1">
          <mxGeometry x="2916" y="4097.5" width="39" height="39" as="geometry" />
        </mxCell>
        <mxCell id="sUbV4CKQDTveOBsSLdRB-81" value="&lt;font style=&quot;font-size: 35px;&quot;&gt;　Task　&lt;/font&gt;&lt;font style=&quot;font-size: 18px;&quot;&gt;&lt;font style=&quot;&quot;&gt;&lt;b style=&quot;&quot;&gt;Owner : User&lt;/b&gt;&lt;/font&gt;&lt;/font&gt;&lt;font style=&quot;font-size: 16px;&quot;&gt;　　　Deadline by&amp;nbsp; 2025 06 23　　　　　高&lt;/font&gt;" style="text;html=1;align=left;verticalAlign=middle;whiteSpace=wrap;rounded=0;" vertex="1" parent="1">
          <mxGeometry x="2171.5" y="3435" width="797" height="30" as="geometry" />
        </mxCell>
        <mxCell id="sUbV4CKQDTveOBsSLdRB-82" value="&lt;font style=&quot;font-size: 35px;&quot;&gt;　Task　&lt;/font&gt;&lt;font style=&quot;font-size: 18px;&quot;&gt;&lt;font style=&quot;&quot;&gt;&lt;b style=&quot;&quot;&gt;Owner : User&lt;/b&gt;&lt;/font&gt;&lt;/font&gt;&lt;font style=&quot;font-size: 16px;&quot;&gt;　　　Deadline by&amp;nbsp; 2025 06 23　　　　　中&lt;/font&gt;" style="text;html=1;align=left;verticalAlign=middle;whiteSpace=wrap;rounded=0;" vertex="1" parent="1">
          <mxGeometry x="2171.5" y="3503" width="797" height="30" as="geometry" />
        </mxCell>
        <mxCell id="sUbV4CKQDTveOBsSLdRB-83" value="&lt;font style=&quot;font-size: 35px;&quot;&gt;　Task　&lt;/font&gt;&lt;font style=&quot;font-size: 18px;&quot;&gt;&lt;font style=&quot;&quot;&gt;&lt;b style=&quot;&quot;&gt;Owner : User&lt;/b&gt;&lt;/font&gt;&lt;/font&gt;&lt;font style=&quot;font-size: 16px;&quot;&gt;　　　Deadline by&amp;nbsp; 2025 06 23　　　　　低&lt;/font&gt;" style="text;html=1;align=left;verticalAlign=middle;whiteSpace=wrap;rounded=0;" vertex="1" parent="1">
          <mxGeometry x="2171.5" y="3565" width="797" height="30" as="geometry" />
        </mxCell>
        <mxCell id="sUbV4CKQDTveOBsSLdRB-85" value="&lt;font style=&quot;font-size: 20px;&quot;&gt;×&lt;/font&gt;" style="ellipse;whiteSpace=wrap;html=1;aspect=fixed;rounded=1;" vertex="1" parent="1">
          <mxGeometry x="2735" y="1205" width="16" height="16" as="geometry" />
        </mxCell>
        <mxCell id="sUbV4CKQDTveOBsSLdRB-87" value="&lt;font style=&quot;font-size: 20px;&quot;&gt;×&lt;/font&gt;" style="ellipse;whiteSpace=wrap;html=1;aspect=fixed;rounded=1;" vertex="1" parent="1">
          <mxGeometry x="2735" y="1273" width="16" height="16" as="geometry" />
        </mxCell>
        <mxCell id="sUbV4CKQDTveOBsSLdRB-88" value="&lt;font style=&quot;font-size: 20px;&quot;&gt;×&lt;/font&gt;" style="ellipse;whiteSpace=wrap;html=1;aspect=fixed;rounded=1;" vertex="1" parent="1">
          <mxGeometry x="2735" y="1335" width="16" height="16" as="geometry" />
        </mxCell>
        <mxCell id="sUbV4CKQDTveOBsSLdRB-89" value="&lt;font style=&quot;font-size: 20px;&quot;&gt;×&lt;/font&gt;" style="ellipse;whiteSpace=wrap;html=1;aspect=fixed;rounded=1;" vertex="1" parent="1">
          <mxGeometry x="2867" y="3449" width="16" height="16" as="geometry" />
        </mxCell>
        <mxCell id="sUbV4CKQDTveOBsSLdRB-90" value="&lt;font style=&quot;font-size: 20px;&quot;&gt;×&lt;/font&gt;" style="ellipse;whiteSpace=wrap;html=1;aspect=fixed;rounded=1;" vertex="1" parent="1">
          <mxGeometry x="2867" y="3517" width="16" height="16" as="geometry" />
        </mxCell>
        <mxCell id="sUbV4CKQDTveOBsSLdRB-91" value="&lt;font style=&quot;font-size: 20px;&quot;&gt;×&lt;/font&gt;" style="ellipse;whiteSpace=wrap;html=1;aspect=fixed;rounded=1;" vertex="1" parent="1">
          <mxGeometry x="2867" y="3579" width="16" height="16" as="geometry" />
        </mxCell>
        <mxCell id="sUbV4CKQDTveOBsSLdRB-99" value="" style="group" vertex="1" connectable="0" parent="1">
          <mxGeometry x="3824" y="3400" width="544" height="807" as="geometry" />
        </mxCell>
        <mxCell id="sUbV4CKQDTveOBsSLdRB-95" value="" style="rounded=0;whiteSpace=wrap;html=1;" vertex="1" parent="sUbV4CKQDTveOBsSLdRB-99">
          <mxGeometry width="545" height="800" as="geometry" />
        </mxCell>
        <mxCell id="sUbV4CKQDTveOBsSLdRB-98" value="&lt;font style=&quot;font-size: 35px;&quot;&gt;　Task&amp;nbsp;&lt;/font&gt;&lt;font style=&quot;font-size: 18px;&quot;&gt;&lt;font style=&quot;&quot;&gt;&lt;b style=&quot;&quot;&gt;Owner : User&lt;/b&gt;&lt;/font&gt;&lt;/font&gt;&lt;font style=&quot;font-size: 16px;&quot;&gt;　Deadline by&amp;nbsp; 2025 06 23　低&lt;/font&gt;" style="text;html=1;align=left;verticalAlign=middle;whiteSpace=wrap;rounded=0;" vertex="1" parent="sUbV4CKQDTveOBsSLdRB-99">
          <mxGeometry x="2.04" y="165.63991011491638" width="541.96" height="36.68181818181818" as="geometry" />
        </mxCell>
        <mxCell id="sUbV4CKQDTveOBsSLdRB-100" value="&lt;font style=&quot;font-size: 35px;&quot;&gt;　Task&amp;nbsp;&lt;/font&gt;&lt;font style=&quot;font-size: 18px;&quot;&gt;&lt;font style=&quot;&quot;&gt;&lt;b style=&quot;&quot;&gt;Owner : User&lt;/b&gt;&lt;/font&gt;&lt;/font&gt;&lt;font style=&quot;font-size: 16px;&quot;&gt;　Deadline by&amp;nbsp; 2025 06 23　中&lt;/font&gt;" style="text;html=1;align=left;verticalAlign=middle;whiteSpace=wrap;rounded=0;" vertex="1" parent="sUbV4CKQDTveOBsSLdRB-99">
          <mxGeometry x="2.0399999999999636" y="101.00125156445556" width="541.96" height="36.68181818181818" as="geometry" />
        </mxCell>
        <mxCell id="sUbV4CKQDTveOBsSLdRB-101" value="&lt;font style=&quot;font-size: 35px;&quot;&gt;　Task&amp;nbsp;&lt;/font&gt;&lt;font style=&quot;font-size: 18px;&quot;&gt;&lt;b&gt;Owner : User&lt;/b&gt;&lt;/font&gt;&lt;font style=&quot;font-size: 16px;&quot;&gt;　Deadline by&amp;nbsp; 2025 06 23　低&lt;/font&gt;" style="text;html=1;align=left;verticalAlign=middle;whiteSpace=wrap;rounded=0;" vertex="1" parent="sUbV4CKQDTveOBsSLdRB-99">
          <mxGeometry x="-1.8207657603852567e-14" y="28.280350438047556" width="541.96" height="36.68181818181818" as="geometry" />
        </mxCell>
        <mxCell id="sUbV4CKQDTveOBsSLdRB-118" value="" style="shape=table;startSize=0;container=1;collapsible=0;childLayout=tableLayout;fontSize=16;rounded=1;" vertex="1" parent="1">
          <mxGeometry x="4443" y="3400" width="1200" height="800" as="geometry" />
        </mxCell>
        <mxCell id="sUbV4CKQDTveOBsSLdRB-151" style="shape=tableRow;horizontal=0;startSize=0;swimlaneHead=0;swimlaneBody=0;strokeColor=inherit;top=0;left=0;bottom=0;right=0;collapsible=0;dropTarget=0;fillColor=none;points=[[0,0.5],[1,0.5]];portConstraint=eastwest;fontSize=16;rounded=1;" vertex="1" parent="sUbV4CKQDTveOBsSLdRB-118">
          <mxGeometry width="1200" height="51" as="geometry" />
        </mxCell>
        <mxCell id="sUbV4CKQDTveOBsSLdRB-152" value="&lt;font style=&quot;font-size: 30px;&quot;&gt;月&lt;/font&gt;" style="shape=partialRectangle;html=1;whiteSpace=wrap;connectable=0;strokeColor=inherit;overflow=hidden;fillColor=none;top=0;left=0;bottom=0;right=0;pointerEvents=1;fontSize=16;rounded=1;" vertex="1" parent="sUbV4CKQDTveOBsSLdRB-151">
          <mxGeometry width="172" height="51" as="geometry">
            <mxRectangle width="172" height="51" as="alternateBounds" />
          </mxGeometry>
        </mxCell>
        <mxCell id="sUbV4CKQDTveOBsSLdRB-153" value="&lt;span style=&quot;font-size: 30px;&quot;&gt;火&lt;/span&gt;" style="shape=partialRectangle;html=1;whiteSpace=wrap;connectable=0;strokeColor=inherit;overflow=hidden;fillColor=none;top=0;left=0;bottom=0;right=0;pointerEvents=1;fontSize=16;rounded=1;" vertex="1" parent="sUbV4CKQDTveOBsSLdRB-151">
          <mxGeometry x="172" width="171" height="51" as="geometry">
            <mxRectangle width="171" height="51" as="alternateBounds" />
          </mxGeometry>
        </mxCell>
        <mxCell id="sUbV4CKQDTveOBsSLdRB-154" value="&lt;span style=&quot;font-size: 30px;&quot;&gt;水&lt;/span&gt;" style="shape=partialRectangle;html=1;whiteSpace=wrap;connectable=0;strokeColor=inherit;overflow=hidden;fillColor=none;top=0;left=0;bottom=0;right=0;pointerEvents=1;fontSize=16;rounded=1;" vertex="1" parent="sUbV4CKQDTveOBsSLdRB-151">
          <mxGeometry x="343" width="172" height="51" as="geometry">
            <mxRectangle width="172" height="51" as="alternateBounds" />
          </mxGeometry>
        </mxCell>
        <mxCell id="sUbV4CKQDTveOBsSLdRB-155" value="&lt;span style=&quot;font-size: 30px;&quot;&gt;木&lt;/span&gt;" style="shape=partialRectangle;html=1;whiteSpace=wrap;connectable=0;strokeColor=inherit;overflow=hidden;fillColor=none;top=0;left=0;bottom=0;right=0;pointerEvents=1;fontSize=16;rounded=1;" vertex="1" parent="sUbV4CKQDTveOBsSLdRB-151">
          <mxGeometry x="515" width="171" height="51" as="geometry">
            <mxRectangle width="171" height="51" as="alternateBounds" />
          </mxGeometry>
        </mxCell>
        <mxCell id="sUbV4CKQDTveOBsSLdRB-156" value="&lt;span style=&quot;font-size: 30px;&quot;&gt;金&lt;/span&gt;" style="shape=partialRectangle;html=1;whiteSpace=wrap;connectable=0;strokeColor=inherit;overflow=hidden;fillColor=none;top=0;left=0;bottom=0;right=0;pointerEvents=1;fontSize=16;rounded=1;" vertex="1" parent="sUbV4CKQDTveOBsSLdRB-151">
          <mxGeometry x="686" width="172" height="51" as="geometry">
            <mxRectangle width="172" height="51" as="alternateBounds" />
          </mxGeometry>
        </mxCell>
        <mxCell id="sUbV4CKQDTveOBsSLdRB-157" value="&lt;span style=&quot;font-size: 30px;&quot;&gt;土&lt;/span&gt;" style="shape=partialRectangle;html=1;whiteSpace=wrap;connectable=0;strokeColor=inherit;overflow=hidden;fillColor=none;top=0;left=0;bottom=0;right=0;pointerEvents=1;fontSize=16;rounded=1;" vertex="1" parent="sUbV4CKQDTveOBsSLdRB-151">
          <mxGeometry x="858" width="170" height="51" as="geometry">
            <mxRectangle width="170" height="51" as="alternateBounds" />
          </mxGeometry>
        </mxCell>
        <mxCell id="sUbV4CKQDTveOBsSLdRB-158" value="&lt;span style=&quot;font-size: 30px;&quot;&gt;日&lt;/span&gt;" style="shape=partialRectangle;html=1;whiteSpace=wrap;connectable=0;strokeColor=inherit;overflow=hidden;fillColor=none;top=0;left=0;bottom=0;right=0;pointerEvents=1;fontSize=16;rounded=1;" vertex="1" parent="sUbV4CKQDTveOBsSLdRB-151">
          <mxGeometry x="1028" width="172" height="51" as="geometry">
            <mxRectangle width="172" height="51" as="alternateBounds" />
          </mxGeometry>
        </mxCell>
        <mxCell id="sUbV4CKQDTveOBsSLdRB-143" style="shape=tableRow;horizontal=0;startSize=0;swimlaneHead=0;swimlaneBody=0;strokeColor=inherit;top=0;left=0;bottom=0;right=0;collapsible=0;dropTarget=0;fillColor=none;points=[[0,0.5],[1,0.5]];portConstraint=eastwest;fontSize=16;rounded=1;" vertex="1" parent="sUbV4CKQDTveOBsSLdRB-118">
          <mxGeometry y="51" width="1200" height="150" as="geometry" />
        </mxCell>
        <mxCell id="sUbV4CKQDTveOBsSLdRB-144" style="shape=partialRectangle;html=1;whiteSpace=wrap;connectable=0;strokeColor=inherit;overflow=hidden;fillColor=none;top=0;left=0;bottom=0;right=0;pointerEvents=1;fontSize=16;rounded=1;" vertex="1" parent="sUbV4CKQDTveOBsSLdRB-143">
          <mxGeometry width="172" height="150" as="geometry">
            <mxRectangle width="172" height="150" as="alternateBounds" />
          </mxGeometry>
        </mxCell>
        <mxCell id="sUbV4CKQDTveOBsSLdRB-145" style="shape=partialRectangle;html=1;whiteSpace=wrap;connectable=0;strokeColor=inherit;overflow=hidden;fillColor=none;top=0;left=0;bottom=0;right=0;pointerEvents=1;fontSize=16;rounded=1;" vertex="1" parent="sUbV4CKQDTveOBsSLdRB-143">
          <mxGeometry x="172" width="171" height="150" as="geometry">
            <mxRectangle width="171" height="150" as="alternateBounds" />
          </mxGeometry>
        </mxCell>
        <mxCell id="sUbV4CKQDTveOBsSLdRB-146" style="shape=partialRectangle;html=1;whiteSpace=wrap;connectable=0;strokeColor=inherit;overflow=hidden;fillColor=none;top=0;left=0;bottom=0;right=0;pointerEvents=1;fontSize=16;rounded=1;" vertex="1" parent="sUbV4CKQDTveOBsSLdRB-143">
          <mxGeometry x="343" width="172" height="150" as="geometry">
            <mxRectangle width="172" height="150" as="alternateBounds" />
          </mxGeometry>
        </mxCell>
        <mxCell id="sUbV4CKQDTveOBsSLdRB-147" style="shape=partialRectangle;html=1;whiteSpace=wrap;connectable=0;strokeColor=inherit;overflow=hidden;fillColor=none;top=0;left=0;bottom=0;right=0;pointerEvents=1;fontSize=16;rounded=1;" vertex="1" parent="sUbV4CKQDTveOBsSLdRB-143">
          <mxGeometry x="515" width="171" height="150" as="geometry">
            <mxRectangle width="171" height="150" as="alternateBounds" />
          </mxGeometry>
        </mxCell>
        <mxCell id="sUbV4CKQDTveOBsSLdRB-148" style="shape=partialRectangle;html=1;whiteSpace=wrap;connectable=0;strokeColor=inherit;overflow=hidden;fillColor=none;top=0;left=0;bottom=0;right=0;pointerEvents=1;fontSize=16;rounded=1;" vertex="1" parent="sUbV4CKQDTveOBsSLdRB-143">
          <mxGeometry x="686" width="172" height="150" as="geometry">
            <mxRectangle width="172" height="150" as="alternateBounds" />
          </mxGeometry>
        </mxCell>
        <mxCell id="sUbV4CKQDTveOBsSLdRB-149" style="shape=partialRectangle;html=1;whiteSpace=wrap;connectable=0;strokeColor=inherit;overflow=hidden;fillColor=none;top=0;left=0;bottom=0;right=0;pointerEvents=1;fontSize=16;rounded=1;" vertex="1" parent="sUbV4CKQDTveOBsSLdRB-143">
          <mxGeometry x="858" width="170" height="150" as="geometry">
            <mxRectangle width="170" height="150" as="alternateBounds" />
          </mxGeometry>
        </mxCell>
        <mxCell id="sUbV4CKQDTveOBsSLdRB-150" style="shape=partialRectangle;html=1;whiteSpace=wrap;connectable=0;strokeColor=inherit;overflow=hidden;fillColor=none;top=0;left=0;bottom=0;right=0;pointerEvents=1;fontSize=16;rounded=1;" vertex="1" parent="sUbV4CKQDTveOBsSLdRB-143">
          <mxGeometry x="1028" width="172" height="150" as="geometry">
            <mxRectangle width="172" height="150" as="alternateBounds" />
          </mxGeometry>
        </mxCell>
        <mxCell id="sUbV4CKQDTveOBsSLdRB-119" value="" style="shape=tableRow;horizontal=0;startSize=0;swimlaneHead=0;swimlaneBody=0;strokeColor=inherit;top=0;left=0;bottom=0;right=0;collapsible=0;dropTarget=0;fillColor=none;points=[[0,0.5],[1,0.5]];portConstraint=eastwest;fontSize=16;rounded=1;" vertex="1" parent="sUbV4CKQDTveOBsSLdRB-118">
          <mxGeometry y="201" width="1200" height="151" as="geometry" />
        </mxCell>
        <mxCell id="sUbV4CKQDTveOBsSLdRB-140" style="shape=partialRectangle;html=1;whiteSpace=wrap;connectable=0;strokeColor=inherit;overflow=hidden;fillColor=none;top=0;left=0;bottom=0;right=0;pointerEvents=1;fontSize=16;rounded=1;" vertex="1" parent="sUbV4CKQDTveOBsSLdRB-119">
          <mxGeometry width="172" height="151" as="geometry">
            <mxRectangle width="172" height="151" as="alternateBounds" />
          </mxGeometry>
        </mxCell>
        <mxCell id="sUbV4CKQDTveOBsSLdRB-137" style="shape=partialRectangle;html=1;whiteSpace=wrap;connectable=0;strokeColor=inherit;overflow=hidden;fillColor=none;top=0;left=0;bottom=0;right=0;pointerEvents=1;fontSize=16;rounded=1;" vertex="1" parent="sUbV4CKQDTveOBsSLdRB-119">
          <mxGeometry x="172" width="171" height="151" as="geometry">
            <mxRectangle width="171" height="151" as="alternateBounds" />
          </mxGeometry>
        </mxCell>
        <mxCell id="sUbV4CKQDTveOBsSLdRB-134" style="shape=partialRectangle;html=1;whiteSpace=wrap;connectable=0;strokeColor=inherit;overflow=hidden;fillColor=none;top=0;left=0;bottom=0;right=0;pointerEvents=1;fontSize=16;rounded=1;" vertex="1" parent="sUbV4CKQDTveOBsSLdRB-119">
          <mxGeometry x="343" width="172" height="151" as="geometry">
            <mxRectangle width="172" height="151" as="alternateBounds" />
          </mxGeometry>
        </mxCell>
        <mxCell id="sUbV4CKQDTveOBsSLdRB-131" style="shape=partialRectangle;html=1;whiteSpace=wrap;connectable=0;strokeColor=inherit;overflow=hidden;fillColor=none;top=0;left=0;bottom=0;right=0;pointerEvents=1;fontSize=16;rounded=1;" vertex="1" parent="sUbV4CKQDTveOBsSLdRB-119">
          <mxGeometry x="515" width="171" height="151" as="geometry">
            <mxRectangle width="171" height="151" as="alternateBounds" />
          </mxGeometry>
        </mxCell>
        <mxCell id="sUbV4CKQDTveOBsSLdRB-120" value="" style="shape=partialRectangle;html=1;whiteSpace=wrap;connectable=0;strokeColor=inherit;overflow=hidden;fillColor=none;top=0;left=0;bottom=0;right=0;pointerEvents=1;fontSize=16;rounded=1;" vertex="1" parent="sUbV4CKQDTveOBsSLdRB-119">
          <mxGeometry x="686" width="172" height="151" as="geometry">
            <mxRectangle width="172" height="151" as="alternateBounds" />
          </mxGeometry>
        </mxCell>
        <mxCell id="sUbV4CKQDTveOBsSLdRB-121" value="" style="shape=partialRectangle;html=1;whiteSpace=wrap;connectable=0;strokeColor=inherit;overflow=hidden;fillColor=none;top=0;left=0;bottom=0;right=0;pointerEvents=1;fontSize=16;rounded=1;" vertex="1" parent="sUbV4CKQDTveOBsSLdRB-119">
          <mxGeometry x="858" width="170" height="151" as="geometry">
            <mxRectangle width="170" height="151" as="alternateBounds" />
          </mxGeometry>
        </mxCell>
        <mxCell id="sUbV4CKQDTveOBsSLdRB-122" value="" style="shape=partialRectangle;html=1;whiteSpace=wrap;connectable=0;strokeColor=inherit;overflow=hidden;fillColor=none;top=0;left=0;bottom=0;right=0;pointerEvents=1;fontSize=16;rounded=1;" vertex="1" parent="sUbV4CKQDTveOBsSLdRB-119">
          <mxGeometry x="1028" width="172" height="151" as="geometry">
            <mxRectangle width="172" height="151" as="alternateBounds" />
          </mxGeometry>
        </mxCell>
        <mxCell id="sUbV4CKQDTveOBsSLdRB-123" value="" style="shape=tableRow;horizontal=0;startSize=0;swimlaneHead=0;swimlaneBody=0;strokeColor=inherit;top=0;left=0;bottom=0;right=0;collapsible=0;dropTarget=0;fillColor=none;points=[[0,0.5],[1,0.5]];portConstraint=eastwest;fontSize=16;rounded=1;" vertex="1" parent="sUbV4CKQDTveOBsSLdRB-118">
          <mxGeometry y="352" width="1200" height="151" as="geometry" />
        </mxCell>
        <mxCell id="sUbV4CKQDTveOBsSLdRB-141" style="shape=partialRectangle;html=1;whiteSpace=wrap;connectable=0;strokeColor=inherit;overflow=hidden;fillColor=none;top=0;left=0;bottom=0;right=0;pointerEvents=1;fontSize=16;rounded=1;" vertex="1" parent="sUbV4CKQDTveOBsSLdRB-123">
          <mxGeometry width="172" height="151" as="geometry">
            <mxRectangle width="172" height="151" as="alternateBounds" />
          </mxGeometry>
        </mxCell>
        <mxCell id="sUbV4CKQDTveOBsSLdRB-138" style="shape=partialRectangle;html=1;whiteSpace=wrap;connectable=0;strokeColor=inherit;overflow=hidden;fillColor=none;top=0;left=0;bottom=0;right=0;pointerEvents=1;fontSize=16;rounded=1;" vertex="1" parent="sUbV4CKQDTveOBsSLdRB-123">
          <mxGeometry x="172" width="171" height="151" as="geometry">
            <mxRectangle width="171" height="151" as="alternateBounds" />
          </mxGeometry>
        </mxCell>
        <mxCell id="sUbV4CKQDTveOBsSLdRB-135" style="shape=partialRectangle;html=1;whiteSpace=wrap;connectable=0;strokeColor=inherit;overflow=hidden;fillColor=none;top=0;left=0;bottom=0;right=0;pointerEvents=1;fontSize=16;rounded=1;" vertex="1" parent="sUbV4CKQDTveOBsSLdRB-123">
          <mxGeometry x="343" width="172" height="151" as="geometry">
            <mxRectangle width="172" height="151" as="alternateBounds" />
          </mxGeometry>
        </mxCell>
        <mxCell id="sUbV4CKQDTveOBsSLdRB-132" style="shape=partialRectangle;html=1;whiteSpace=wrap;connectable=0;strokeColor=inherit;overflow=hidden;fillColor=none;top=0;left=0;bottom=0;right=0;pointerEvents=1;fontSize=16;rounded=1;" vertex="1" parent="sUbV4CKQDTveOBsSLdRB-123">
          <mxGeometry x="515" width="171" height="151" as="geometry">
            <mxRectangle width="171" height="151" as="alternateBounds" />
          </mxGeometry>
        </mxCell>
        <mxCell id="sUbV4CKQDTveOBsSLdRB-124" value="" style="shape=partialRectangle;html=1;whiteSpace=wrap;connectable=0;strokeColor=inherit;overflow=hidden;fillColor=none;top=0;left=0;bottom=0;right=0;pointerEvents=1;fontSize=16;rounded=1;" vertex="1" parent="sUbV4CKQDTveOBsSLdRB-123">
          <mxGeometry x="686" width="172" height="151" as="geometry">
            <mxRectangle width="172" height="151" as="alternateBounds" />
          </mxGeometry>
        </mxCell>
        <mxCell id="sUbV4CKQDTveOBsSLdRB-125" value="" style="shape=partialRectangle;html=1;whiteSpace=wrap;connectable=0;strokeColor=inherit;overflow=hidden;fillColor=none;top=0;left=0;bottom=0;right=0;pointerEvents=1;fontSize=16;rounded=1;" vertex="1" parent="sUbV4CKQDTveOBsSLdRB-123">
          <mxGeometry x="858" width="170" height="151" as="geometry">
            <mxRectangle width="170" height="151" as="alternateBounds" />
          </mxGeometry>
        </mxCell>
        <mxCell id="sUbV4CKQDTveOBsSLdRB-126" value="" style="shape=partialRectangle;html=1;whiteSpace=wrap;connectable=0;strokeColor=inherit;overflow=hidden;fillColor=none;top=0;left=0;bottom=0;right=0;pointerEvents=1;fontSize=16;rounded=1;" vertex="1" parent="sUbV4CKQDTveOBsSLdRB-123">
          <mxGeometry x="1028" width="172" height="151" as="geometry">
            <mxRectangle width="172" height="151" as="alternateBounds" />
          </mxGeometry>
        </mxCell>
        <mxCell id="sUbV4CKQDTveOBsSLdRB-127" value="" style="shape=tableRow;horizontal=0;startSize=0;swimlaneHead=0;swimlaneBody=0;strokeColor=inherit;top=0;left=0;bottom=0;right=0;collapsible=0;dropTarget=0;fillColor=none;points=[[0,0.5],[1,0.5]];portConstraint=eastwest;fontSize=16;rounded=1;" vertex="1" parent="sUbV4CKQDTveOBsSLdRB-118">
          <mxGeometry y="503" width="1200" height="149" as="geometry" />
        </mxCell>
        <mxCell id="sUbV4CKQDTveOBsSLdRB-142" style="shape=partialRectangle;html=1;whiteSpace=wrap;connectable=0;strokeColor=inherit;overflow=hidden;fillColor=none;top=0;left=0;bottom=0;right=0;pointerEvents=1;fontSize=16;rounded=1;" vertex="1" parent="sUbV4CKQDTveOBsSLdRB-127">
          <mxGeometry width="172" height="149" as="geometry">
            <mxRectangle width="172" height="149" as="alternateBounds" />
          </mxGeometry>
        </mxCell>
        <mxCell id="sUbV4CKQDTveOBsSLdRB-139" style="shape=partialRectangle;html=1;whiteSpace=wrap;connectable=0;strokeColor=inherit;overflow=hidden;fillColor=none;top=0;left=0;bottom=0;right=0;pointerEvents=1;fontSize=16;rounded=1;" vertex="1" parent="sUbV4CKQDTveOBsSLdRB-127">
          <mxGeometry x="172" width="171" height="149" as="geometry">
            <mxRectangle width="171" height="149" as="alternateBounds" />
          </mxGeometry>
        </mxCell>
        <mxCell id="sUbV4CKQDTveOBsSLdRB-136" style="shape=partialRectangle;html=1;whiteSpace=wrap;connectable=0;strokeColor=inherit;overflow=hidden;fillColor=none;top=0;left=0;bottom=0;right=0;pointerEvents=1;fontSize=16;rounded=1;" vertex="1" parent="sUbV4CKQDTveOBsSLdRB-127">
          <mxGeometry x="343" width="172" height="149" as="geometry">
            <mxRectangle width="172" height="149" as="alternateBounds" />
          </mxGeometry>
        </mxCell>
        <mxCell id="sUbV4CKQDTveOBsSLdRB-133" style="shape=partialRectangle;html=1;whiteSpace=wrap;connectable=0;strokeColor=inherit;overflow=hidden;fillColor=none;top=0;left=0;bottom=0;right=0;pointerEvents=1;fontSize=16;rounded=1;" vertex="1" parent="sUbV4CKQDTveOBsSLdRB-127">
          <mxGeometry x="515" width="171" height="149" as="geometry">
            <mxRectangle width="171" height="149" as="alternateBounds" />
          </mxGeometry>
        </mxCell>
        <mxCell id="sUbV4CKQDTveOBsSLdRB-128" value="" style="shape=partialRectangle;html=1;whiteSpace=wrap;connectable=0;strokeColor=inherit;overflow=hidden;fillColor=none;top=0;left=0;bottom=0;right=0;pointerEvents=1;fontSize=16;rounded=1;" vertex="1" parent="sUbV4CKQDTveOBsSLdRB-127">
          <mxGeometry x="686" width="172" height="149" as="geometry">
            <mxRectangle width="172" height="149" as="alternateBounds" />
          </mxGeometry>
        </mxCell>
        <mxCell id="sUbV4CKQDTveOBsSLdRB-129" value="" style="shape=partialRectangle;html=1;whiteSpace=wrap;connectable=0;strokeColor=inherit;overflow=hidden;fillColor=none;top=0;left=0;bottom=0;right=0;pointerEvents=1;fontSize=16;rounded=1;" vertex="1" parent="sUbV4CKQDTveOBsSLdRB-127">
          <mxGeometry x="858" width="170" height="149" as="geometry">
            <mxRectangle width="170" height="149" as="alternateBounds" />
          </mxGeometry>
        </mxCell>
        <mxCell id="sUbV4CKQDTveOBsSLdRB-130" value="" style="shape=partialRectangle;html=1;whiteSpace=wrap;connectable=0;strokeColor=inherit;overflow=hidden;fillColor=none;top=0;left=0;bottom=0;right=0;pointerEvents=1;fontSize=16;rounded=1;" vertex="1" parent="sUbV4CKQDTveOBsSLdRB-127">
          <mxGeometry x="1028" width="172" height="149" as="geometry">
            <mxRectangle width="172" height="149" as="alternateBounds" />
          </mxGeometry>
        </mxCell>
        <mxCell id="sUbV4CKQDTveOBsSLdRB-194" style="shape=tableRow;horizontal=0;startSize=0;swimlaneHead=0;swimlaneBody=0;strokeColor=inherit;top=0;left=0;bottom=0;right=0;collapsible=0;dropTarget=0;fillColor=none;points=[[0,0.5],[1,0.5]];portConstraint=eastwest;fontSize=16;rounded=1;" vertex="1" parent="sUbV4CKQDTveOBsSLdRB-118">
          <mxGeometry y="652" width="1200" height="148" as="geometry" />
        </mxCell>
        <mxCell id="sUbV4CKQDTveOBsSLdRB-195" style="shape=partialRectangle;html=1;whiteSpace=wrap;connectable=0;strokeColor=inherit;overflow=hidden;fillColor=none;top=0;left=0;bottom=0;right=0;pointerEvents=1;fontSize=16;rounded=1;" vertex="1" parent="sUbV4CKQDTveOBsSLdRB-194">
          <mxGeometry width="172" height="148" as="geometry">
            <mxRectangle width="172" height="148" as="alternateBounds" />
          </mxGeometry>
        </mxCell>
        <mxCell id="sUbV4CKQDTveOBsSLdRB-196" style="shape=partialRectangle;html=1;whiteSpace=wrap;connectable=0;strokeColor=inherit;overflow=hidden;fillColor=none;top=0;left=0;bottom=0;right=0;pointerEvents=1;fontSize=16;rounded=1;" vertex="1" parent="sUbV4CKQDTveOBsSLdRB-194">
          <mxGeometry x="172" width="171" height="148" as="geometry">
            <mxRectangle width="171" height="148" as="alternateBounds" />
          </mxGeometry>
        </mxCell>
        <mxCell id="sUbV4CKQDTveOBsSLdRB-197" style="shape=partialRectangle;html=1;whiteSpace=wrap;connectable=0;strokeColor=inherit;overflow=hidden;fillColor=none;top=0;left=0;bottom=0;right=0;pointerEvents=1;fontSize=16;rounded=1;" vertex="1" parent="sUbV4CKQDTveOBsSLdRB-194">
          <mxGeometry x="343" width="172" height="148" as="geometry">
            <mxRectangle width="172" height="148" as="alternateBounds" />
          </mxGeometry>
        </mxCell>
        <mxCell id="sUbV4CKQDTveOBsSLdRB-198" style="shape=partialRectangle;html=1;whiteSpace=wrap;connectable=0;strokeColor=inherit;overflow=hidden;fillColor=none;top=0;left=0;bottom=0;right=0;pointerEvents=1;fontSize=16;rounded=1;" vertex="1" parent="sUbV4CKQDTveOBsSLdRB-194">
          <mxGeometry x="515" width="171" height="148" as="geometry">
            <mxRectangle width="171" height="148" as="alternateBounds" />
          </mxGeometry>
        </mxCell>
        <mxCell id="sUbV4CKQDTveOBsSLdRB-199" style="shape=partialRectangle;html=1;whiteSpace=wrap;connectable=0;strokeColor=inherit;overflow=hidden;fillColor=none;top=0;left=0;bottom=0;right=0;pointerEvents=1;fontSize=16;rounded=1;" vertex="1" parent="sUbV4CKQDTveOBsSLdRB-194">
          <mxGeometry x="686" width="172" height="148" as="geometry">
            <mxRectangle width="172" height="148" as="alternateBounds" />
          </mxGeometry>
        </mxCell>
        <mxCell id="sUbV4CKQDTveOBsSLdRB-200" style="shape=partialRectangle;html=1;whiteSpace=wrap;connectable=0;strokeColor=inherit;overflow=hidden;fillColor=none;top=0;left=0;bottom=0;right=0;pointerEvents=1;fontSize=16;rounded=1;" vertex="1" parent="sUbV4CKQDTveOBsSLdRB-194">
          <mxGeometry x="858" width="170" height="148" as="geometry">
            <mxRectangle width="170" height="148" as="alternateBounds" />
          </mxGeometry>
        </mxCell>
        <mxCell id="sUbV4CKQDTveOBsSLdRB-201" style="shape=partialRectangle;html=1;whiteSpace=wrap;connectable=0;strokeColor=inherit;overflow=hidden;fillColor=none;top=0;left=0;bottom=0;right=0;pointerEvents=1;fontSize=16;rounded=1;" vertex="1" parent="sUbV4CKQDTveOBsSLdRB-194">
          <mxGeometry x="1028" width="172" height="148" as="geometry">
            <mxRectangle width="172" height="148" as="alternateBounds" />
          </mxGeometry>
        </mxCell>
        <mxCell id="sUbV4CKQDTveOBsSLdRB-160" value="&lt;font style=&quot;font-size: 15px;&quot;&gt;Task&amp;nbsp;&amp;nbsp;&lt;/font&gt;&lt;font style=&quot;color: light-dark(rgb(0, 0, 0), rgb(255, 255, 255));&quot;&gt;&lt;b style=&quot;&quot;&gt;User&amp;nbsp;&amp;nbsp;&lt;/b&gt;&lt;/font&gt;&lt;font style=&quot;color: light-dark(rgb(0, 0, 0), rgb(255, 255, 255)); font-size: 16px;&quot;&gt;低&lt;/font&gt;" style="text;html=1;align=left;verticalAlign=middle;whiteSpace=wrap;rounded=0;labelBorderColor=none;labelBackgroundColor=#ECECEC;" vertex="1" parent="1">
          <mxGeometry x="4459" y="3644" width="98" height="36.68" as="geometry" />
        </mxCell>
        <mxCell id="sUbV4CKQDTveOBsSLdRB-202" value="&lt;font style=&quot;font-size: 18px;&quot;&gt;1&lt;/font&gt;" style="text;html=1;align=center;verticalAlign=middle;whiteSpace=wrap;rounded=0;" vertex="1" parent="1">
          <mxGeometry x="5471" y="3450.32" width="40" height="30" as="geometry" />
        </mxCell>
        <mxCell id="sUbV4CKQDTveOBsSLdRB-203" value="&lt;span style=&quot;font-size: 18px;&quot;&gt;2&lt;/span&gt;" style="text;html=1;align=center;verticalAlign=middle;whiteSpace=wrap;rounded=0;" vertex="1" parent="1">
          <mxGeometry x="4443" y="3601" width="40" height="30" as="geometry" />
        </mxCell>
        <mxCell id="sUbV4CKQDTveOBsSLdRB-204" value="&lt;span style=&quot;font-size: 18px;&quot;&gt;3&lt;/span&gt;" style="text;html=1;align=center;verticalAlign=middle;whiteSpace=wrap;rounded=0;" vertex="1" parent="1">
          <mxGeometry x="4614" y="3601" width="40" height="30" as="geometry" />
        </mxCell>
        <mxCell id="sUbV4CKQDTveOBsSLdRB-205" value="&lt;span style=&quot;font-size: 18px;&quot;&gt;4&lt;/span&gt;" style="text;html=1;align=center;verticalAlign=middle;whiteSpace=wrap;rounded=0;" vertex="1" parent="1">
          <mxGeometry x="4786" y="3601" width="40" height="30" as="geometry" />
        </mxCell>
        <mxCell id="sUbV4CKQDTveOBsSLdRB-206" value="&lt;span style=&quot;font-size: 18px;&quot;&gt;5&lt;/span&gt;" style="text;html=1;align=center;verticalAlign=middle;whiteSpace=wrap;rounded=0;" vertex="1" parent="1">
          <mxGeometry x="4958" y="3601" width="40" height="30" as="geometry" />
        </mxCell>
        <mxCell id="sUbV4CKQDTveOBsSLdRB-207" value="&lt;span style=&quot;font-size: 18px;&quot;&gt;6&lt;/span&gt;" style="text;html=1;align=center;verticalAlign=middle;whiteSpace=wrap;rounded=0;" vertex="1" parent="1">
          <mxGeometry x="5129" y="3601" width="40" height="30" as="geometry" />
        </mxCell>
        <mxCell id="sUbV4CKQDTveOBsSLdRB-208" value="&lt;span style=&quot;font-size: 18px;&quot;&gt;7&lt;/span&gt;" style="text;html=1;align=center;verticalAlign=middle;whiteSpace=wrap;rounded=0;" vertex="1" parent="1">
          <mxGeometry x="5300" y="3601" width="40" height="30" as="geometry" />
        </mxCell>
        <mxCell id="sUbV4CKQDTveOBsSLdRB-209" value="&lt;span style=&quot;font-size: 18px;&quot;&gt;8&lt;/span&gt;" style="text;html=1;align=center;verticalAlign=middle;whiteSpace=wrap;rounded=0;" vertex="1" parent="1">
          <mxGeometry x="5471" y="3601" width="40" height="30" as="geometry" />
        </mxCell>
        <mxCell id="sUbV4CKQDTveOBsSLdRB-293" value="" style="rounded=0;whiteSpace=wrap;html=1;movable=1;resizable=1;rotatable=1;deletable=1;editable=1;locked=0;connectable=1;" vertex="1" parent="1">
          <mxGeometry x="4170" y="947" width="1920" height="1080" as="geometry" />
        </mxCell>
        <mxCell id="sUbV4CKQDTveOBsSLdRB-294" style="edgeStyle=none;curved=1;rounded=0;orthogonalLoop=1;jettySize=auto;html=1;fontSize=12;startSize=8;endSize=8;" edge="1" parent="1" source="sUbV4CKQDTveOBsSLdRB-295" target="sUbV4CKQDTveOBsSLdRB-293">
          <mxGeometry relative="1" as="geometry" />
        </mxCell>
        <mxCell id="sUbV4CKQDTveOBsSLdRB-295" value="" style="rounded=0;whiteSpace=wrap;html=1;" vertex="1" parent="1">
          <mxGeometry x="4170" y="947" width="1920" height="65" as="geometry" />
        </mxCell>
        <mxCell id="sUbV4CKQDTveOBsSLdRB-296" value="&lt;font style=&quot;font-size: 30px;&quot;&gt;Service Name&lt;/font&gt;" style="text;html=1;align=center;verticalAlign=middle;whiteSpace=wrap;rounded=0;" vertex="1" parent="1">
          <mxGeometry x="4190" y="964.5" width="200" height="30" as="geometry" />
        </mxCell>
        <mxCell id="sUbV4CKQDTveOBsSLdRB-297" value="&lt;span style=&quot;font-size: 35px;&quot;&gt;サインアップ&lt;/span&gt;" style="text;html=1;align=center;verticalAlign=middle;whiteSpace=wrap;rounded=0;" vertex="1" parent="1">
          <mxGeometry x="4170" y="850" width="229" height="72" as="geometry" />
        </mxCell>
        <mxCell id="sUbV4CKQDTveOBsSLdRB-298" value="&lt;span style=&quot;font-size: 18px;&quot;&gt;Guest&lt;/span&gt;" style="text;html=1;align=center;verticalAlign=middle;whiteSpace=wrap;rounded=0;" vertex="1" parent="1">
          <mxGeometry x="5978" y="964.5" width="60" height="30" as="geometry" />
        </mxCell>
        <mxCell id="sUbV4CKQDTveOBsSLdRB-299" value="&lt;font style=&quot;font-size: 16px;&quot;&gt;▼&lt;/font&gt;" style="text;html=1;align=center;verticalAlign=middle;whiteSpace=wrap;rounded=0;" vertex="1" parent="1">
          <mxGeometry x="6041" y="964.5" width="30" height="30" as="geometry" />
        </mxCell>
        <mxCell id="sUbV4CKQDTveOBsSLdRB-300" value="&lt;span style=&quot;font-size: 35px;&quot;&gt;サインアップ&lt;/span&gt;" style="text;html=1;align=center;verticalAlign=middle;whiteSpace=wrap;rounded=0;" vertex="1" parent="1">
          <mxGeometry x="4986.5" y="1084" width="287" height="30" as="geometry" />
        </mxCell>
        <mxCell id="sUbV4CKQDTveOBsSLdRB-301" value="" style="rounded=0;whiteSpace=wrap;html=1;" vertex="1" parent="1">
          <mxGeometry x="4730" y="1143" width="800" height="660" as="geometry" />
        </mxCell>
        <mxCell id="sUbV4CKQDTveOBsSLdRB-310" value="" style="rounded=0;whiteSpace=wrap;html=1;movable=1;resizable=1;rotatable=1;deletable=1;editable=1;locked=0;connectable=1;" vertex="1" parent="1">
          <mxGeometry x="6336" y="947" width="1920" height="1080" as="geometry" />
        </mxCell>
        <mxCell id="sUbV4CKQDTveOBsSLdRB-311" style="edgeStyle=none;curved=1;rounded=0;orthogonalLoop=1;jettySize=auto;html=1;fontSize=12;startSize=8;endSize=8;" edge="1" parent="1" source="sUbV4CKQDTveOBsSLdRB-312" target="sUbV4CKQDTveOBsSLdRB-310">
          <mxGeometry relative="1" as="geometry" />
        </mxCell>
        <mxCell id="sUbV4CKQDTveOBsSLdRB-312" value="" style="rounded=0;whiteSpace=wrap;html=1;" vertex="1" parent="1">
          <mxGeometry x="6336" y="947" width="1920" height="65" as="geometry" />
        </mxCell>
        <mxCell id="sUbV4CKQDTveOBsSLdRB-313" value="&lt;font style=&quot;font-size: 30px;&quot;&gt;Service Name&lt;/font&gt;" style="text;html=1;align=center;verticalAlign=middle;whiteSpace=wrap;rounded=0;" vertex="1" parent="1">
          <mxGeometry x="6356" y="964.5" width="200" height="30" as="geometry" />
        </mxCell>
        <mxCell id="sUbV4CKQDTveOBsSLdRB-314" value="&lt;span style=&quot;font-size: 35px;&quot;&gt;ログイン&lt;/span&gt;" style="text;html=1;align=center;verticalAlign=middle;whiteSpace=wrap;rounded=0;" vertex="1" parent="1">
          <mxGeometry x="6336" y="850" width="229" height="72" as="geometry" />
        </mxCell>
        <mxCell id="sUbV4CKQDTveOBsSLdRB-315" value="&lt;span style=&quot;font-size: 18px;&quot;&gt;Guest&lt;/span&gt;" style="text;html=1;align=center;verticalAlign=middle;whiteSpace=wrap;rounded=0;" vertex="1" parent="1">
          <mxGeometry x="8144" y="964.5" width="60" height="30" as="geometry" />
        </mxCell>
        <mxCell id="sUbV4CKQDTveOBsSLdRB-316" value="&lt;font style=&quot;font-size: 16px;&quot;&gt;▼&lt;/font&gt;" style="text;html=1;align=center;verticalAlign=middle;whiteSpace=wrap;rounded=0;" vertex="1" parent="1">
          <mxGeometry x="8207" y="964.5" width="30" height="30" as="geometry" />
        </mxCell>
        <mxCell id="sUbV4CKQDTveOBsSLdRB-317" value="&lt;span style=&quot;font-size: 35px;&quot;&gt;ログイン&lt;/span&gt;" style="text;html=1;align=center;verticalAlign=middle;whiteSpace=wrap;rounded=0;" vertex="1" parent="1">
          <mxGeometry x="7152.5" y="1084" width="287" height="30" as="geometry" />
        </mxCell>
        <mxCell id="sUbV4CKQDTveOBsSLdRB-319" value="" style="rounded=0;whiteSpace=wrap;html=1;align=center;" vertex="1" parent="1">
          <mxGeometry x="4818" y="1255" width="624" height="60" as="geometry" />
        </mxCell>
        <mxCell id="sUbV4CKQDTveOBsSLdRB-320" value="" style="rounded=0;whiteSpace=wrap;html=1;" vertex="1" parent="1">
          <mxGeometry x="4818" y="1375" width="624" height="60" as="geometry" />
        </mxCell>
        <mxCell id="sUbV4CKQDTveOBsSLdRB-321" value="" style="rounded=0;whiteSpace=wrap;html=1;" vertex="1" parent="1">
          <mxGeometry x="4818" y="1491" width="624" height="60" as="geometry" />
        </mxCell>
        <mxCell id="sUbV4CKQDTveOBsSLdRB-322" value="" style="rounded=0;whiteSpace=wrap;html=1;" vertex="1" parent="1">
          <mxGeometry x="4818" y="1602" width="624" height="60" as="geometry" />
        </mxCell>
        <mxCell id="sUbV4CKQDTveOBsSLdRB-324" value="&lt;font style=&quot;font-size: 16px;&quot;&gt;Username&lt;/font&gt;" style="text;html=1;align=left;verticalAlign=middle;whiteSpace=wrap;rounded=0;" vertex="1" parent="1">
          <mxGeometry x="4818" y="1217" width="80" height="30" as="geometry" />
        </mxCell>
        <mxCell id="sUbV4CKQDTveOBsSLdRB-325" value="&lt;font style=&quot;font-size: 16px;&quot;&gt;Email&lt;/font&gt;" style="text;html=1;align=left;verticalAlign=middle;whiteSpace=wrap;rounded=0;" vertex="1" parent="1">
          <mxGeometry x="4818" y="1345" width="80" height="30" as="geometry" />
        </mxCell>
        <mxCell id="sUbV4CKQDTveOBsSLdRB-326" value="&lt;font style=&quot;font-size: 16px;&quot;&gt;Password&lt;/font&gt;" style="text;html=1;align=left;verticalAlign=middle;whiteSpace=wrap;rounded=0;" vertex="1" parent="1">
          <mxGeometry x="4818" y="1461" width="80" height="30" as="geometry" />
        </mxCell>
        <mxCell id="sUbV4CKQDTveOBsSLdRB-327" value="&lt;font style=&quot;font-size: 16px;&quot;&gt;Password&lt;/font&gt;" style="text;html=1;align=left;verticalAlign=middle;whiteSpace=wrap;rounded=0;" vertex="1" parent="1">
          <mxGeometry x="4818" y="1572" width="80" height="30" as="geometry" />
        </mxCell>
        <mxCell id="sUbV4CKQDTveOBsSLdRB-338" value="" style="rounded=0;whiteSpace=wrap;html=1;" vertex="1" parent="1">
          <mxGeometry x="6896" y="1159" width="800" height="660" as="geometry" />
        </mxCell>
        <mxCell id="sUbV4CKQDTveOBsSLdRB-340" value="" style="rounded=0;whiteSpace=wrap;html=1;" vertex="1" parent="1">
          <mxGeometry x="6984" y="1391" width="624" height="60" as="geometry" />
        </mxCell>
        <mxCell id="sUbV4CKQDTveOBsSLdRB-341" value="" style="rounded=0;whiteSpace=wrap;html=1;" vertex="1" parent="1">
          <mxGeometry x="6984" y="1507" width="624" height="60" as="geometry" />
        </mxCell>
        <mxCell id="sUbV4CKQDTveOBsSLdRB-344" value="&lt;font style=&quot;font-size: 16px;&quot;&gt;Email&lt;/font&gt;" style="text;html=1;align=left;verticalAlign=middle;whiteSpace=wrap;rounded=0;" vertex="1" parent="1">
          <mxGeometry x="6984" y="1361" width="80" height="30" as="geometry" />
        </mxCell>
        <mxCell id="sUbV4CKQDTveOBsSLdRB-345" value="&lt;font style=&quot;font-size: 16px;&quot;&gt;Password&lt;/font&gt;" style="text;html=1;align=left;verticalAlign=middle;whiteSpace=wrap;rounded=0;" vertex="1" parent="1">
          <mxGeometry x="6984" y="1477" width="80" height="30" as="geometry" />
        </mxCell>
        <mxCell id="sUbV4CKQDTveOBsSLdRB-347" value="&lt;span style=&quot;font-size: 16px;&quot;&gt;Sign up&lt;/span&gt;" style="rounded=1;whiteSpace=wrap;html=1;" vertex="1" parent="1">
          <mxGeometry x="5322" y="1709" width="120" height="38" as="geometry" />
        </mxCell>
        <mxCell id="sUbV4CKQDTveOBsSLdRB-348" value="&lt;font style=&quot;font-size: 16px;&quot;&gt;Login&lt;/font&gt;" style="rounded=1;whiteSpace=wrap;html=1;" vertex="1" parent="1">
          <mxGeometry x="7488" y="1645" width="120" height="38" as="geometry" />
        </mxCell>
        <mxCell id="Hbc4--VY7qoyLQKUP1ww-2" value="すべて▼" style="rounded=1;whiteSpace=wrap;html=1;" vertex="1" parent="1">
          <mxGeometry x="2522.25" y="3337" width="91.5" height="33" as="geometry" />
        </mxCell>
        <mxCell id="Hbc4--VY7qoyLQKUP1ww-24" value="" style="group" vertex="1" connectable="0" parent="1">
          <mxGeometry x="3454" y="3264" width="73" height="44" as="geometry" />
        </mxCell>
        <mxCell id="Hbc4--VY7qoyLQKUP1ww-8" value="&lt;span style=&quot;background-color: transparent; color: light-dark(rgb(33, 37, 41), rgb(202, 206, 209));&quot;&gt;　&lt;/span&gt;" style="html=1;shadow=0;dashed=0;shape=mxgraph.bootstrap.switch;strokeColor=#ADB6BD;strokeWidth=1;fillColor=#ffffff;fontColor=#212529;onStrokeColor=#ffffff;onFillColor=#0085FC;align=left;verticalAlign=middle;spacingLeft=10;labelPosition=right;verticalLabelPosition=middle;buttonState=0;sketch=0;rounded=1;" vertex="1" parent="Hbc4--VY7qoyLQKUP1ww-24">
          <mxGeometry x="16" width="20" height="18" as="geometry" />
        </mxCell>
        <mxCell id="Hbc4--VY7qoyLQKUP1ww-11" value="&lt;font style=&quot;font-size: 10px;&quot;&gt;カレンダーオフ&lt;/font&gt;" style="text;html=1;align=center;verticalAlign=middle;whiteSpace=wrap;rounded=0;" vertex="1" parent="Hbc4--VY7qoyLQKUP1ww-24">
          <mxGeometry y="14" width="73" height="30" as="geometry" />
        </mxCell>
        <mxCell id="Hbc4--VY7qoyLQKUP1ww-31" value="" style="group" vertex="1" connectable="0" parent="1">
          <mxGeometry x="5634" y="3264" width="73" height="44" as="geometry" />
        </mxCell>
        <mxCell id="Hbc4--VY7qoyLQKUP1ww-32" value="&lt;span style=&quot;background-color: transparent; color: light-dark(rgb(33, 37, 41), rgb(202, 206, 209));&quot;&gt;　&lt;/span&gt;" style="html=1;shadow=0;dashed=0;shape=mxgraph.bootstrap.switch;strokeColor=#ADB6BD;strokeWidth=1;fillColor=#ffffff;fontColor=#212529;onStrokeColor=#ffffff;onFillColor=#0085FC;align=left;verticalAlign=middle;spacingLeft=10;labelPosition=right;verticalLabelPosition=middle;buttonState=0;sketch=0;rounded=1;" vertex="1" parent="Hbc4--VY7qoyLQKUP1ww-31">
          <mxGeometry x="16" width="20" height="18" as="geometry" />
        </mxCell>
        <mxCell id="Hbc4--VY7qoyLQKUP1ww-33" value="&lt;font style=&quot;font-size: 10px;&quot;&gt;カレンダーオン&lt;/font&gt;" style="text;html=1;align=center;verticalAlign=middle;whiteSpace=wrap;rounded=0;" vertex="1" parent="Hbc4--VY7qoyLQKUP1ww-31">
          <mxGeometry y="14" width="73" height="30" as="geometry" />
        </mxCell>
        <mxCell id="Hbc4--VY7qoyLQKUP1ww-36" value="&lt;font style=&quot;font-size: 30px;&quot;&gt;Project Name&lt;/font&gt;" style="text;html=1;align=center;verticalAlign=middle;whiteSpace=wrap;rounded=0;" vertex="1" parent="1">
          <mxGeometry x="1630" y="3296" width="200" height="30" as="geometry" />
        </mxCell>
        <mxCell id="Hbc4--VY7qoyLQKUP1ww-38" value="&lt;font style=&quot;font-size: 30px;&quot;&gt;Project Name&lt;/font&gt;" style="text;html=1;align=center;verticalAlign=middle;whiteSpace=wrap;rounded=0;" vertex="1" parent="1">
          <mxGeometry x="3817" y="3296" width="200" height="30" as="geometry" />
        </mxCell>
        <mxCell id="Hbc4--VY7qoyLQKUP1ww-40" style="edgeStyle=none;curved=1;rounded=1;orthogonalLoop=1;jettySize=auto;html=1;exitX=0.5;exitY=1;exitDx=0;exitDy=0;fontSize=12;startSize=8;endSize=8;" edge="1" parent="1" source="DcRnJb95eFVDKA_FqErw-20" target="DcRnJb95eFVDKA_FqErw-20">
          <mxGeometry relative="1" as="geometry" />
        </mxCell>
      </root>
    </mxGraphModel>
  </diagram>
  <diagram name="ER図" id="bZAN91eZIt_G5wmCnHun">
    <mxGraphModel dx="586" dy="662" grid="1" gridSize="10" guides="1" tooltips="1" connect="1" arrows="1" fold="1" page="1" pageScale="1" pageWidth="827" pageHeight="1169" math="0" shadow="1">
      <root>
        <mxCell id="0" />
        <mxCell id="1" parent="0" />
        <mxCell id="VwGCQYxRV1vKALf5iQKp-6" value="users" style="shape=table;startSize=30;container=1;collapsible=1;childLayout=tableLayout;fixedRows=1;rowLines=0;fontStyle=1;align=center;resizeLast=1;html=1;" parent="1" vertex="1">
          <mxGeometry x="100" y="160" width="180" height="150.0000000000001" as="geometry" />
        </mxCell>
        <mxCell id="VwGCQYxRV1vKALf5iQKp-7" value="" style="shape=tableRow;horizontal=0;startSize=0;swimlaneHead=0;swimlaneBody=0;fillColor=none;collapsible=0;dropTarget=0;points=[[0,0.5],[1,0.5]];portConstraint=eastwest;top=0;left=0;right=0;bottom=1;" parent="VwGCQYxRV1vKALf5iQKp-6" vertex="1">
          <mxGeometry y="30" width="180" height="30" as="geometry" />
        </mxCell>
        <mxCell id="VwGCQYxRV1vKALf5iQKp-8" value="PK" style="shape=partialRectangle;connectable=0;fillColor=none;top=0;left=0;bottom=0;right=0;fontStyle=1;overflow=hidden;whiteSpace=wrap;html=1;" parent="VwGCQYxRV1vKALf5iQKp-7" vertex="1">
          <mxGeometry width="30" height="30" as="geometry">
            <mxRectangle width="30" height="30" as="alternateBounds" />
          </mxGeometry>
        </mxCell>
        <mxCell id="VwGCQYxRV1vKALf5iQKp-9" value="id" style="shape=partialRectangle;connectable=0;fillColor=none;top=0;left=0;bottom=0;right=0;align=left;spacingLeft=6;fontStyle=5;overflow=hidden;whiteSpace=wrap;html=1;" parent="VwGCQYxRV1vKALf5iQKp-7" vertex="1">
          <mxGeometry x="30" width="150" height="30" as="geometry">
            <mxRectangle width="150" height="30" as="alternateBounds" />
          </mxGeometry>
        </mxCell>
        <mxCell id="VwGCQYxRV1vKALf5iQKp-10" value="" style="shape=tableRow;horizontal=0;startSize=0;swimlaneHead=0;swimlaneBody=0;fillColor=none;collapsible=0;dropTarget=0;points=[[0,0.5],[1,0.5]];portConstraint=eastwest;top=0;left=0;right=0;bottom=0;" parent="VwGCQYxRV1vKALf5iQKp-6" vertex="1">
          <mxGeometry y="60" width="180" height="30" as="geometry" />
        </mxCell>
        <mxCell id="VwGCQYxRV1vKALf5iQKp-11" value="" style="shape=partialRectangle;connectable=0;fillColor=none;top=0;left=0;bottom=0;right=0;editable=1;overflow=hidden;whiteSpace=wrap;html=1;" parent="VwGCQYxRV1vKALf5iQKp-10" vertex="1">
          <mxGeometry width="30" height="30" as="geometry">
            <mxRectangle width="30" height="30" as="alternateBounds" />
          </mxGeometry>
        </mxCell>
        <mxCell id="VwGCQYxRV1vKALf5iQKp-12" value="name" style="shape=partialRectangle;connectable=0;fillColor=none;top=0;left=0;bottom=0;right=0;align=left;spacingLeft=6;overflow=hidden;whiteSpace=wrap;html=1;" parent="VwGCQYxRV1vKALf5iQKp-10" vertex="1">
          <mxGeometry x="30" width="150" height="30" as="geometry">
            <mxRectangle width="150" height="30" as="alternateBounds" />
          </mxGeometry>
        </mxCell>
        <mxCell id="VwGCQYxRV1vKALf5iQKp-13" value="" style="shape=tableRow;horizontal=0;startSize=0;swimlaneHead=0;swimlaneBody=0;fillColor=none;collapsible=0;dropTarget=0;points=[[0,0.5],[1,0.5]];portConstraint=eastwest;top=0;left=0;right=0;bottom=0;" parent="VwGCQYxRV1vKALf5iQKp-6" vertex="1">
          <mxGeometry y="90" width="180" height="30" as="geometry" />
        </mxCell>
        <mxCell id="VwGCQYxRV1vKALf5iQKp-14" value="" style="shape=partialRectangle;connectable=0;fillColor=none;top=0;left=0;bottom=0;right=0;editable=1;overflow=hidden;whiteSpace=wrap;html=1;" parent="VwGCQYxRV1vKALf5iQKp-13" vertex="1">
          <mxGeometry width="30" height="30" as="geometry">
            <mxRectangle width="30" height="30" as="alternateBounds" />
          </mxGeometry>
        </mxCell>
        <mxCell id="VwGCQYxRV1vKALf5iQKp-15" value="email" style="shape=partialRectangle;connectable=0;fillColor=none;top=0;left=0;bottom=0;right=0;align=left;spacingLeft=6;overflow=hidden;whiteSpace=wrap;html=1;" parent="VwGCQYxRV1vKALf5iQKp-13" vertex="1">
          <mxGeometry x="30" width="150" height="30" as="geometry">
            <mxRectangle width="150" height="30" as="alternateBounds" />
          </mxGeometry>
        </mxCell>
        <mxCell id="VwGCQYxRV1vKALf5iQKp-16" value="" style="shape=tableRow;horizontal=0;startSize=0;swimlaneHead=0;swimlaneBody=0;fillColor=none;collapsible=0;dropTarget=0;points=[[0,0.5],[1,0.5]];portConstraint=eastwest;top=0;left=0;right=0;bottom=0;" parent="VwGCQYxRV1vKALf5iQKp-6" vertex="1">
          <mxGeometry y="120" width="180" height="30" as="geometry" />
        </mxCell>
        <mxCell id="VwGCQYxRV1vKALf5iQKp-17" value="" style="shape=partialRectangle;connectable=0;fillColor=none;top=0;left=0;bottom=0;right=0;editable=1;overflow=hidden;whiteSpace=wrap;html=1;" parent="VwGCQYxRV1vKALf5iQKp-16" vertex="1">
          <mxGeometry width="30" height="30" as="geometry">
            <mxRectangle width="30" height="30" as="alternateBounds" />
          </mxGeometry>
        </mxCell>
        <mxCell id="VwGCQYxRV1vKALf5iQKp-18" value="password" style="shape=partialRectangle;connectable=0;fillColor=none;top=0;left=0;bottom=0;right=0;align=left;spacingLeft=6;overflow=hidden;whiteSpace=wrap;html=1;" parent="VwGCQYxRV1vKALf5iQKp-16" vertex="1">
          <mxGeometry x="30" width="150" height="30" as="geometry">
            <mxRectangle width="150" height="30" as="alternateBounds" />
          </mxGeometry>
        </mxCell>
        <mxCell id="VwGCQYxRV1vKALf5iQKp-19" value="projects" style="shape=table;startSize=30;container=1;collapsible=1;childLayout=tableLayout;fixedRows=1;rowLines=0;fontStyle=1;align=center;resizeLast=1;html=1;" parent="1" vertex="1">
          <mxGeometry x="390" y="160" width="180" height="150" as="geometry" />
        </mxCell>
        <mxCell id="VwGCQYxRV1vKALf5iQKp-20" value="" style="shape=tableRow;horizontal=0;startSize=0;swimlaneHead=0;swimlaneBody=0;fillColor=none;collapsible=0;dropTarget=0;points=[[0,0.5],[1,0.5]];portConstraint=eastwest;top=0;left=0;right=0;bottom=1;" parent="VwGCQYxRV1vKALf5iQKp-19" vertex="1">
          <mxGeometry y="30" width="180" height="30" as="geometry" />
        </mxCell>
        <mxCell id="VwGCQYxRV1vKALf5iQKp-21" value="PK" style="shape=partialRectangle;connectable=0;fillColor=none;top=0;left=0;bottom=0;right=0;fontStyle=1;overflow=hidden;whiteSpace=wrap;html=1;" parent="VwGCQYxRV1vKALf5iQKp-20" vertex="1">
          <mxGeometry width="30" height="30" as="geometry">
            <mxRectangle width="30" height="30" as="alternateBounds" />
          </mxGeometry>
        </mxCell>
        <mxCell id="VwGCQYxRV1vKALf5iQKp-22" value="id" style="shape=partialRectangle;connectable=0;fillColor=none;top=0;left=0;bottom=0;right=0;align=left;spacingLeft=6;fontStyle=5;overflow=hidden;whiteSpace=wrap;html=1;" parent="VwGCQYxRV1vKALf5iQKp-20" vertex="1">
          <mxGeometry x="30" width="150" height="30" as="geometry">
            <mxRectangle width="150" height="30" as="alternateBounds" />
          </mxGeometry>
        </mxCell>
        <mxCell id="VwGCQYxRV1vKALf5iQKp-23" value="" style="shape=tableRow;horizontal=0;startSize=0;swimlaneHead=0;swimlaneBody=0;fillColor=none;collapsible=0;dropTarget=0;points=[[0,0.5],[1,0.5]];portConstraint=eastwest;top=0;left=0;right=0;bottom=0;" parent="VwGCQYxRV1vKALf5iQKp-19" vertex="1">
          <mxGeometry y="60" width="180" height="30" as="geometry" />
        </mxCell>
        <mxCell id="VwGCQYxRV1vKALf5iQKp-24" value="" style="shape=partialRectangle;connectable=0;fillColor=none;top=0;left=0;bottom=0;right=0;editable=1;overflow=hidden;whiteSpace=wrap;html=1;" parent="VwGCQYxRV1vKALf5iQKp-23" vertex="1">
          <mxGeometry width="30" height="30" as="geometry">
            <mxRectangle width="30" height="30" as="alternateBounds" />
          </mxGeometry>
        </mxCell>
        <mxCell id="VwGCQYxRV1vKALf5iQKp-25" value="name" style="shape=partialRectangle;connectable=0;fillColor=none;top=0;left=0;bottom=0;right=0;align=left;spacingLeft=6;overflow=hidden;whiteSpace=wrap;html=1;" parent="VwGCQYxRV1vKALf5iQKp-23" vertex="1">
          <mxGeometry x="30" width="150" height="30" as="geometry">
            <mxRectangle width="150" height="30" as="alternateBounds" />
          </mxGeometry>
        </mxCell>
        <mxCell id="VwGCQYxRV1vKALf5iQKp-26" value="" style="shape=tableRow;horizontal=0;startSize=0;swimlaneHead=0;swimlaneBody=0;fillColor=none;collapsible=0;dropTarget=0;points=[[0,0.5],[1,0.5]];portConstraint=eastwest;top=0;left=0;right=0;bottom=0;" parent="VwGCQYxRV1vKALf5iQKp-19" vertex="1">
          <mxGeometry y="90" width="180" height="30" as="geometry" />
        </mxCell>
        <mxCell id="VwGCQYxRV1vKALf5iQKp-27" value="" style="shape=partialRectangle;connectable=0;fillColor=none;top=0;left=0;bottom=0;right=0;editable=1;overflow=hidden;whiteSpace=wrap;html=1;" parent="VwGCQYxRV1vKALf5iQKp-26" vertex="1">
          <mxGeometry width="30" height="30" as="geometry">
            <mxRectangle width="30" height="30" as="alternateBounds" />
          </mxGeometry>
        </mxCell>
        <mxCell id="VwGCQYxRV1vKALf5iQKp-28" value="description     " style="shape=partialRectangle;connectable=0;fillColor=none;top=0;left=0;bottom=0;right=0;align=left;spacingLeft=6;overflow=hidden;whiteSpace=wrap;html=1;" parent="VwGCQYxRV1vKALf5iQKp-26" vertex="1">
          <mxGeometry x="30" width="150" height="30" as="geometry">
            <mxRectangle width="150" height="30" as="alternateBounds" />
          </mxGeometry>
        </mxCell>
        <mxCell id="VwGCQYxRV1vKALf5iQKp-29" value="" style="shape=tableRow;horizontal=0;startSize=0;swimlaneHead=0;swimlaneBody=0;fillColor=none;collapsible=0;dropTarget=0;points=[[0,0.5],[1,0.5]];portConstraint=eastwest;top=0;left=0;right=0;bottom=0;" parent="VwGCQYxRV1vKALf5iQKp-19" vertex="1">
          <mxGeometry y="120" width="180" height="30" as="geometry" />
        </mxCell>
        <mxCell id="VwGCQYxRV1vKALf5iQKp-30" value="" style="shape=partialRectangle;connectable=0;fillColor=none;top=0;left=0;bottom=0;right=0;editable=1;overflow=hidden;whiteSpace=wrap;html=1;" parent="VwGCQYxRV1vKALf5iQKp-29" vertex="1">
          <mxGeometry width="30" height="30" as="geometry">
            <mxRectangle width="30" height="30" as="alternateBounds" />
          </mxGeometry>
        </mxCell>
        <mxCell id="VwGCQYxRV1vKALf5iQKp-31" value="status          " style="shape=partialRectangle;connectable=0;fillColor=none;top=0;left=0;bottom=0;right=0;align=left;spacingLeft=6;overflow=hidden;whiteSpace=wrap;html=1;" parent="VwGCQYxRV1vKALf5iQKp-29" vertex="1">
          <mxGeometry x="30" width="150" height="30" as="geometry">
            <mxRectangle width="150" height="30" as="alternateBounds" />
          </mxGeometry>
        </mxCell>
        <mxCell id="VwGCQYxRV1vKALf5iQKp-32" value="project_members " style="shape=table;startSize=30;container=1;collapsible=1;childLayout=tableLayout;fixedRows=1;rowLines=0;fontStyle=1;align=center;resizeLast=1;html=1;" parent="1" vertex="1">
          <mxGeometry x="140" y="470" width="180" height="150" as="geometry" />
        </mxCell>
        <mxCell id="VwGCQYxRV1vKALf5iQKp-33" value="" style="shape=tableRow;horizontal=0;startSize=0;swimlaneHead=0;swimlaneBody=0;fillColor=none;collapsible=0;dropTarget=0;points=[[0,0.5],[1,0.5]];portConstraint=eastwest;top=0;left=0;right=0;bottom=1;" parent="VwGCQYxRV1vKALf5iQKp-32" vertex="1">
          <mxGeometry y="30" width="180" height="30" as="geometry" />
        </mxCell>
        <mxCell id="VwGCQYxRV1vKALf5iQKp-34" value="PK" style="shape=partialRectangle;connectable=0;fillColor=none;top=0;left=0;bottom=0;right=0;fontStyle=1;overflow=hidden;whiteSpace=wrap;html=1;" parent="VwGCQYxRV1vKALf5iQKp-33" vertex="1">
          <mxGeometry width="30" height="30" as="geometry">
            <mxRectangle width="30" height="30" as="alternateBounds" />
          </mxGeometry>
        </mxCell>
        <mxCell id="VwGCQYxRV1vKALf5iQKp-35" value="id" style="shape=partialRectangle;connectable=0;fillColor=none;top=0;left=0;bottom=0;right=0;align=left;spacingLeft=6;fontStyle=5;overflow=hidden;whiteSpace=wrap;html=1;" parent="VwGCQYxRV1vKALf5iQKp-33" vertex="1">
          <mxGeometry x="30" width="150" height="30" as="geometry">
            <mxRectangle width="150" height="30" as="alternateBounds" />
          </mxGeometry>
        </mxCell>
        <mxCell id="VwGCQYxRV1vKALf5iQKp-36" value="" style="shape=tableRow;horizontal=0;startSize=0;swimlaneHead=0;swimlaneBody=0;fillColor=none;collapsible=0;dropTarget=0;points=[[0,0.5],[1,0.5]];portConstraint=eastwest;top=0;left=0;right=0;bottom=0;" parent="VwGCQYxRV1vKALf5iQKp-32" vertex="1">
          <mxGeometry y="60" width="180" height="30" as="geometry" />
        </mxCell>
        <mxCell id="VwGCQYxRV1vKALf5iQKp-37" value="&lt;b&gt;FK&lt;/b&gt;" style="shape=partialRectangle;connectable=0;fillColor=none;top=0;left=0;bottom=0;right=0;editable=1;overflow=hidden;whiteSpace=wrap;html=1;" parent="VwGCQYxRV1vKALf5iQKp-36" vertex="1">
          <mxGeometry width="30" height="30" as="geometry">
            <mxRectangle width="30" height="30" as="alternateBounds" />
          </mxGeometry>
        </mxCell>
        <mxCell id="VwGCQYxRV1vKALf5iQKp-38" value="project_id" style="shape=partialRectangle;connectable=0;fillColor=none;top=0;left=0;bottom=0;right=0;align=left;spacingLeft=6;overflow=hidden;whiteSpace=wrap;html=1;" parent="VwGCQYxRV1vKALf5iQKp-36" vertex="1">
          <mxGeometry x="30" width="150" height="30" as="geometry">
            <mxRectangle width="150" height="30" as="alternateBounds" />
          </mxGeometry>
        </mxCell>
        <mxCell id="VwGCQYxRV1vKALf5iQKp-39" value="" style="shape=tableRow;horizontal=0;startSize=0;swimlaneHead=0;swimlaneBody=0;fillColor=none;collapsible=0;dropTarget=0;points=[[0,0.5],[1,0.5]];portConstraint=eastwest;top=0;left=0;right=0;bottom=0;" parent="VwGCQYxRV1vKALf5iQKp-32" vertex="1">
          <mxGeometry y="90" width="180" height="30" as="geometry" />
        </mxCell>
        <mxCell id="VwGCQYxRV1vKALf5iQKp-40" value="&lt;b&gt;FK&lt;/b&gt;" style="shape=partialRectangle;connectable=0;fillColor=none;top=0;left=0;bottom=0;right=0;editable=1;overflow=hidden;whiteSpace=wrap;html=1;" parent="VwGCQYxRV1vKALf5iQKp-39" vertex="1">
          <mxGeometry width="30" height="30" as="geometry">
            <mxRectangle width="30" height="30" as="alternateBounds" />
          </mxGeometry>
        </mxCell>
        <mxCell id="VwGCQYxRV1vKALf5iQKp-41" value="user_id" style="shape=partialRectangle;connectable=0;fillColor=none;top=0;left=0;bottom=0;right=0;align=left;spacingLeft=6;overflow=hidden;whiteSpace=wrap;html=1;" parent="VwGCQYxRV1vKALf5iQKp-39" vertex="1">
          <mxGeometry x="30" width="150" height="30" as="geometry">
            <mxRectangle width="150" height="30" as="alternateBounds" />
          </mxGeometry>
        </mxCell>
        <mxCell id="VwGCQYxRV1vKALf5iQKp-42" value="" style="shape=tableRow;horizontal=0;startSize=0;swimlaneHead=0;swimlaneBody=0;fillColor=none;collapsible=0;dropTarget=0;points=[[0,0.5],[1,0.5]];portConstraint=eastwest;top=0;left=0;right=0;bottom=0;" parent="VwGCQYxRV1vKALf5iQKp-32" vertex="1">
          <mxGeometry y="120" width="180" height="30" as="geometry" />
        </mxCell>
        <mxCell id="VwGCQYxRV1vKALf5iQKp-43" value="" style="shape=partialRectangle;connectable=0;fillColor=none;top=0;left=0;bottom=0;right=0;editable=1;overflow=hidden;whiteSpace=wrap;html=1;" parent="VwGCQYxRV1vKALf5iQKp-42" vertex="1">
          <mxGeometry width="30" height="30" as="geometry">
            <mxRectangle width="30" height="30" as="alternateBounds" />
          </mxGeometry>
        </mxCell>
        <mxCell id="VwGCQYxRV1vKALf5iQKp-44" value="password" style="shape=partialRectangle;connectable=0;fillColor=none;top=0;left=0;bottom=0;right=0;align=left;spacingLeft=6;overflow=hidden;whiteSpace=wrap;html=1;" parent="VwGCQYxRV1vKALf5iQKp-42" vertex="1">
          <mxGeometry x="30" width="150" height="30" as="geometry">
            <mxRectangle width="150" height="30" as="alternateBounds" />
          </mxGeometry>
        </mxCell>
        <mxCell id="VwGCQYxRV1vKALf5iQKp-60" value="tasks" style="shape=table;startSize=30;container=1;collapsible=1;childLayout=tableLayout;fixedRows=1;rowLines=0;fontStyle=1;align=center;resizeLast=1;html=1;" parent="1" vertex="1">
          <mxGeometry x="413" y="460" width="210" height="270" as="geometry">
            <mxRectangle x="400" y="470" width="70" height="30" as="alternateBounds" />
          </mxGeometry>
        </mxCell>
        <mxCell id="VwGCQYxRV1vKALf5iQKp-61" value="" style="shape=tableRow;horizontal=0;startSize=0;swimlaneHead=0;swimlaneBody=0;fillColor=none;collapsible=0;dropTarget=0;points=[[0,0.5],[1,0.5]];portConstraint=eastwest;top=0;left=0;right=0;bottom=1;" parent="VwGCQYxRV1vKALf5iQKp-60" vertex="1">
          <mxGeometry y="30" width="210" height="30" as="geometry" />
        </mxCell>
        <mxCell id="VwGCQYxRV1vKALf5iQKp-62" value="PK" style="shape=partialRectangle;connectable=0;fillColor=none;top=0;left=0;bottom=0;right=0;fontStyle=1;overflow=hidden;whiteSpace=wrap;html=1;" parent="VwGCQYxRV1vKALf5iQKp-61" vertex="1">
          <mxGeometry width="30" height="30" as="geometry">
            <mxRectangle width="30" height="30" as="alternateBounds" />
          </mxGeometry>
        </mxCell>
        <mxCell id="VwGCQYxRV1vKALf5iQKp-63" value="id" style="shape=partialRectangle;connectable=0;fillColor=none;top=0;left=0;bottom=0;right=0;align=left;spacingLeft=6;fontStyle=5;overflow=hidden;whiteSpace=wrap;html=1;" parent="VwGCQYxRV1vKALf5iQKp-61" vertex="1">
          <mxGeometry x="30" width="180" height="30" as="geometry">
            <mxRectangle width="180" height="30" as="alternateBounds" />
          </mxGeometry>
        </mxCell>
        <mxCell id="VwGCQYxRV1vKALf5iQKp-64" value="" style="shape=tableRow;horizontal=0;startSize=0;swimlaneHead=0;swimlaneBody=0;fillColor=none;collapsible=0;dropTarget=0;points=[[0,0.5],[1,0.5]];portConstraint=eastwest;top=0;left=0;right=0;bottom=0;" parent="VwGCQYxRV1vKALf5iQKp-60" vertex="1">
          <mxGeometry y="60" width="210" height="30" as="geometry" />
        </mxCell>
        <mxCell id="VwGCQYxRV1vKALf5iQKp-65" value="&lt;b&gt;FK&lt;/b&gt;" style="shape=partialRectangle;connectable=0;fillColor=none;top=0;left=0;bottom=0;right=0;editable=1;overflow=hidden;whiteSpace=wrap;html=1;" parent="VwGCQYxRV1vKALf5iQKp-64" vertex="1">
          <mxGeometry width="30" height="30" as="geometry">
            <mxRectangle width="30" height="30" as="alternateBounds" />
          </mxGeometry>
        </mxCell>
        <mxCell id="VwGCQYxRV1vKALf5iQKp-66" value="project_id" style="shape=partialRectangle;connectable=0;fillColor=none;top=0;left=0;bottom=0;right=0;align=left;spacingLeft=6;overflow=hidden;whiteSpace=wrap;html=1;" parent="VwGCQYxRV1vKALf5iQKp-64" vertex="1">
          <mxGeometry x="30" width="180" height="30" as="geometry">
            <mxRectangle width="180" height="30" as="alternateBounds" />
          </mxGeometry>
        </mxCell>
        <mxCell id="VwGCQYxRV1vKALf5iQKp-67" value="" style="shape=tableRow;horizontal=0;startSize=0;swimlaneHead=0;swimlaneBody=0;fillColor=none;collapsible=0;dropTarget=0;points=[[0,0.5],[1,0.5]];portConstraint=eastwest;top=0;left=0;right=0;bottom=0;" parent="VwGCQYxRV1vKALf5iQKp-60" vertex="1">
          <mxGeometry y="90" width="210" height="30" as="geometry" />
        </mxCell>
        <mxCell id="VwGCQYxRV1vKALf5iQKp-68" value="" style="shape=partialRectangle;connectable=0;fillColor=none;top=0;left=0;bottom=0;right=0;editable=1;overflow=hidden;whiteSpace=wrap;html=1;" parent="VwGCQYxRV1vKALf5iQKp-67" vertex="1">
          <mxGeometry width="30" height="30" as="geometry">
            <mxRectangle width="30" height="30" as="alternateBounds" />
          </mxGeometry>
        </mxCell>
        <mxCell id="VwGCQYxRV1vKALf5iQKp-69" value="assigned_project_member_id" style="shape=partialRectangle;connectable=0;fillColor=none;top=0;left=0;bottom=0;right=0;align=left;spacingLeft=6;overflow=hidden;whiteSpace=wrap;html=1;" parent="VwGCQYxRV1vKALf5iQKp-67" vertex="1">
          <mxGeometry x="30" width="180" height="30" as="geometry">
            <mxRectangle width="180" height="30" as="alternateBounds" />
          </mxGeometry>
        </mxCell>
        <mxCell id="VwGCQYxRV1vKALf5iQKp-70" value="" style="shape=tableRow;horizontal=0;startSize=0;swimlaneHead=0;swimlaneBody=0;fillColor=none;collapsible=0;dropTarget=0;points=[[0,0.5],[1,0.5]];portConstraint=eastwest;top=0;left=0;right=0;bottom=0;" parent="VwGCQYxRV1vKALf5iQKp-60" vertex="1">
          <mxGeometry y="120" width="210" height="30" as="geometry" />
        </mxCell>
        <mxCell id="VwGCQYxRV1vKALf5iQKp-71" value="" style="shape=partialRectangle;connectable=0;fillColor=none;top=0;left=0;bottom=0;right=0;editable=1;overflow=hidden;whiteSpace=wrap;html=1;" parent="VwGCQYxRV1vKALf5iQKp-70" vertex="1">
          <mxGeometry width="30" height="30" as="geometry">
            <mxRectangle width="30" height="30" as="alternateBounds" />
          </mxGeometry>
        </mxCell>
        <mxCell id="VwGCQYxRV1vKALf5iQKp-72" value="name" style="shape=partialRectangle;connectable=0;fillColor=none;top=0;left=0;bottom=0;right=0;align=left;spacingLeft=6;overflow=hidden;whiteSpace=wrap;html=1;" parent="VwGCQYxRV1vKALf5iQKp-70" vertex="1">
          <mxGeometry x="30" width="180" height="30" as="geometry">
            <mxRectangle width="180" height="30" as="alternateBounds" />
          </mxGeometry>
        </mxCell>
        <mxCell id="VwGCQYxRV1vKALf5iQKp-77" style="shape=tableRow;horizontal=0;startSize=0;swimlaneHead=0;swimlaneBody=0;fillColor=none;collapsible=0;dropTarget=0;points=[[0,0.5],[1,0.5]];portConstraint=eastwest;top=0;left=0;right=0;bottom=0;" parent="VwGCQYxRV1vKALf5iQKp-60" vertex="1">
          <mxGeometry y="150" width="210" height="30" as="geometry" />
        </mxCell>
        <mxCell id="VwGCQYxRV1vKALf5iQKp-78" style="shape=partialRectangle;connectable=0;fillColor=none;top=0;left=0;bottom=0;right=0;editable=1;overflow=hidden;whiteSpace=wrap;html=1;" parent="VwGCQYxRV1vKALf5iQKp-77" vertex="1">
          <mxGeometry width="30" height="30" as="geometry">
            <mxRectangle width="30" height="30" as="alternateBounds" />
          </mxGeometry>
        </mxCell>
        <mxCell id="VwGCQYxRV1vKALf5iQKp-79" value="description" style="shape=partialRectangle;connectable=0;fillColor=none;top=0;left=0;bottom=0;right=0;align=left;spacingLeft=6;overflow=hidden;whiteSpace=wrap;html=1;" parent="VwGCQYxRV1vKALf5iQKp-77" vertex="1">
          <mxGeometry x="30" width="180" height="30" as="geometry">
            <mxRectangle width="180" height="30" as="alternateBounds" />
          </mxGeometry>
        </mxCell>
        <mxCell id="VwGCQYxRV1vKALf5iQKp-80" style="shape=tableRow;horizontal=0;startSize=0;swimlaneHead=0;swimlaneBody=0;fillColor=none;collapsible=0;dropTarget=0;points=[[0,0.5],[1,0.5]];portConstraint=eastwest;top=0;left=0;right=0;bottom=0;" parent="VwGCQYxRV1vKALf5iQKp-60" vertex="1">
          <mxGeometry y="180" width="210" height="30" as="geometry" />
        </mxCell>
        <mxCell id="VwGCQYxRV1vKALf5iQKp-81" style="shape=partialRectangle;connectable=0;fillColor=none;top=0;left=0;bottom=0;right=0;editable=1;overflow=hidden;whiteSpace=wrap;html=1;" parent="VwGCQYxRV1vKALf5iQKp-80" vertex="1">
          <mxGeometry width="30" height="30" as="geometry">
            <mxRectangle width="30" height="30" as="alternateBounds" />
          </mxGeometry>
        </mxCell>
        <mxCell id="VwGCQYxRV1vKALf5iQKp-82" value="status&amp;nbsp; &amp;nbsp; &amp;nbsp;" style="shape=partialRectangle;connectable=0;fillColor=none;top=0;left=0;bottom=0;right=0;align=left;spacingLeft=6;overflow=hidden;whiteSpace=wrap;html=1;" parent="VwGCQYxRV1vKALf5iQKp-80" vertex="1">
          <mxGeometry x="30" width="180" height="30" as="geometry">
            <mxRectangle width="180" height="30" as="alternateBounds" />
          </mxGeometry>
        </mxCell>
        <mxCell id="VwGCQYxRV1vKALf5iQKp-83" style="shape=tableRow;horizontal=0;startSize=0;swimlaneHead=0;swimlaneBody=0;fillColor=none;collapsible=0;dropTarget=0;points=[[0,0.5],[1,0.5]];portConstraint=eastwest;top=0;left=0;right=0;bottom=0;" parent="VwGCQYxRV1vKALf5iQKp-60" vertex="1">
          <mxGeometry y="210" width="210" height="30" as="geometry" />
        </mxCell>
        <mxCell id="VwGCQYxRV1vKALf5iQKp-84" style="shape=partialRectangle;connectable=0;fillColor=none;top=0;left=0;bottom=0;right=0;editable=1;overflow=hidden;whiteSpace=wrap;html=1;" parent="VwGCQYxRV1vKALf5iQKp-83" vertex="1">
          <mxGeometry width="30" height="30" as="geometry">
            <mxRectangle width="30" height="30" as="alternateBounds" />
          </mxGeometry>
        </mxCell>
        <mxCell id="VwGCQYxRV1vKALf5iQKp-85" value="due_date" style="shape=partialRectangle;connectable=0;fillColor=none;top=0;left=0;bottom=0;right=0;align=left;spacingLeft=6;overflow=hidden;whiteSpace=wrap;html=1;" parent="VwGCQYxRV1vKALf5iQKp-83" vertex="1">
          <mxGeometry x="30" width="180" height="30" as="geometry">
            <mxRectangle width="180" height="30" as="alternateBounds" />
          </mxGeometry>
        </mxCell>
        <mxCell id="VwGCQYxRV1vKALf5iQKp-86" style="shape=tableRow;horizontal=0;startSize=0;swimlaneHead=0;swimlaneBody=0;fillColor=none;collapsible=0;dropTarget=0;points=[[0,0.5],[1,0.5]];portConstraint=eastwest;top=0;left=0;right=0;bottom=0;" parent="VwGCQYxRV1vKALf5iQKp-60" vertex="1">
          <mxGeometry y="240" width="210" height="30" as="geometry" />
        </mxCell>
        <mxCell id="VwGCQYxRV1vKALf5iQKp-87" style="shape=partialRectangle;connectable=0;fillColor=none;top=0;left=0;bottom=0;right=0;editable=1;overflow=hidden;whiteSpace=wrap;html=1;" parent="VwGCQYxRV1vKALf5iQKp-86" vertex="1">
          <mxGeometry width="30" height="30" as="geometry">
            <mxRectangle width="30" height="30" as="alternateBounds" />
          </mxGeometry>
        </mxCell>
        <mxCell id="VwGCQYxRV1vKALf5iQKp-88" value="priority" style="shape=partialRectangle;connectable=0;fillColor=none;top=0;left=0;bottom=0;right=0;align=left;spacingLeft=6;overflow=hidden;whiteSpace=wrap;html=1;" parent="VwGCQYxRV1vKALf5iQKp-86" vertex="1">
          <mxGeometry x="30" width="180" height="30" as="geometry">
            <mxRectangle width="180" height="30" as="alternateBounds" />
          </mxGeometry>
        </mxCell>
      </root>
    </mxGraphModel>
  </diagram>
</mxfile>
